<?xml version="1.0" encoding="UTF-8" standalone="no"?>
<!-- Created with Inkscape (http://www.inkscape.org/) -->

<svg
   width="2509.5198mm"
   height="1219.2001mm"
   viewBox="0 0 2509.5198 1219.2001"
   version="1.1"
   id="svg5"
   xml:space="preserve"
   xmlns:inkscape="http://www.inkscape.org/namespaces/inkscape"
   xmlns:sodipodi="http://sodipodi.sourceforge.net/DTD/sodipodi-0.dtd"
   xmlns="http://www.w3.org/2000/svg"
   xmlns:svg="http://www.w3.org/2000/svg"><sodipodi:namedview
     id="namedview7"
     pagecolor="#ffffff"
     bordercolor="#000000"
     borderopacity="0.25"
     inkscape:showpageshadow="2"
     inkscape:pageopacity="0.0"
     inkscape:pagecheckerboard="0"
     inkscape:deskcolor="#d1d1d1"
     inkscape:document-units="mm"
     showgrid="false" /><defs
     id="defs2" /><g
     inkscape:label="Calque 1"
     inkscape:groupmode="layer"
     id="layer1"
     transform="translate(1573.7516,491.81838)"><path
       style="fill:#000000;stroke-width:2.54"
       d="m -326.61162,721.0317 v -6.35 h 7.62 7.62 v 6.35 6.35 h -7.62 -7.62 z m 152.4,0 v -6.35 h 7.61999 7.62 v 6.35 6.35 h -7.62 -7.61999 z m -208.28,-12.7 v -6.35 h 7.62 7.62 v 6.35 6.35 h -7.62 -7.62 z m 279.39999,0 v -6.35 h 6.349998 6.35 v 6.35 6.35 h -6.35 -6.349998 z m -584.19998,-13.97 v -7.62 h 7.62 7.62 v 7.62 7.62 h -7.62 -7.62 z m 403.85999,0 v -7.62 h 6.35 6.35 v 7.62 7.62 h -6.35 -6.35 z m -139.7,-13.97 v -6.35 h 7.62 7.62 v 6.35 6.35 h -7.62 -7.62 z m 236.22,0 v -6.35 h 6.35 6.35 v 6.35 6.35 h -6.35 -6.35 z m 220.979987,0 v -6.35 h 7.62 7.62 v 6.35 6.35 h -7.62 -7.62 z m -594.359977,-13.97 v -7.62 h 6.35 6.35 v 7.62 7.62 h -6.35 -6.35 z m 96.52,0 v -7.62 h 6.35 6.35 v 7.62 7.62 h -6.35 -6.35 z m 81.27999,0 v -7.62 h 7.62 7.62 v 7.62 7.62 h -7.62 -7.62 z m 154.94,0 v -7.62 h 6.35 6.35 v 7.62 7.62 h -6.35 -6.35 z m 177.799988,0 v -7.62 h 7.62 7.619999 v 7.62 7.62 h -7.619999 -7.62 z m -566.419978,-13.97 v -6.35 h 6.35 6.35 v 6.35 6.35 h -6.35 -6.35 z m 96.52,0 v -6.35 h 6.35 6.35 v 6.35 6.35 h -6.35 -6.35 z m 27.94,0 v -6.35 h 6.35 6.35 v 6.35 6.35 h -6.35 -6.35 z m 68.57999,0 v -6.35 h -6.35 -6.35 v -7.62 -7.62 h -7.61999 -7.62 v 7.62 7.62 h -6.35 -6.35 v -7.62 -7.62 h -7.62 -7.62 v -6.35 -6.35 h -6.35 -6.35 v -7.62 -7.62 h -21.59 -21.59 v 7.62 7.62 h 13.97 13.97 v 6.35 6.35 h -13.97 -13.97 v -6.35 -6.35 h -12.7 -12.7 v -7.62 -7.62 h 12.7 12.7 v -6.35 -6.35 h -20.32 -20.32 v 6.35 6.35 h -13.97 -13.97 v 7.62 7.62 h 13.97 13.97 v 6.35 6.35 h 7.62 7.62 v 7.62 7.62 h -7.62 -7.62 v -7.62 -7.62 h -13.97 -13.97 v -6.35 -6.35 h -6.35 -6.35 v -7.62 -7.62 h 6.35 6.35 v -6.35 -6.35 h -13.97 -13.97 v -20.32 -20.32 h -6.35 -6.35 v 26.67 26.67 h 6.35 6.35 v 7.62 7.62 h -6.35 -6.35 v -7.62 -7.62 h -7.62 -7.62 v -6.35 -6.35 h -6.35 -6.35 v -7.62 -7.62 h -7.62 -7.62 v -12.7 -12.7 h -6.35 -6.35 v 20.32 20.32 h 6.35 6.35 v 6.35 6.35 h 7.62 7.62 v 7.62 7.62 h 6.35 6.35 v 6.35 6.35 h 7.62 7.62 v 7.62 7.62 h -7.62 -7.62 v -7.62 -7.62 h -6.35 -6.35 v -6.35 -6.35 h -7.62 -7.62 v -7.62 -7.62 h -6.35 -6.35 v -6.35 -6.35 h -6.34999 -6.35 v 6.35 6.35 h -7.62 -7.62 v -6.35 -6.35 h -6.35 -6.35 v -7.62 -7.62 h -13.97 -13.97 v -6.35 -6.35 h -7.62 -7.62 v 6.35 6.35 h -6.35 -6.35 v 7.62 7.62 h 6.35 6.35 v 6.35 6.35 h -6.35 -6.35 v -6.35 -6.35 h -7.62 -7.62 v -7.62 -7.62 h -13.97 -13.97 v -6.35 -6.35 h -12.7 -12.7 v -6.35 -6.35 h -7.62 -7.62 v -7.62 -7.62 h -6.35 -6.35 v 7.62 7.62 h -21.59 -21.58997 v -7.62 -7.62 h -13.97 -13.97 v 7.62 7.62 h -6.35 -6.35 v -7.62 -7.62 h 6.35 6.35 v -6.35 -6.35 h -6.35 -6.35 v -13.97 -13.97 h -7.62 -7.62 v 13.97 13.97 h -6.35 -6.35003 v -13.97 -13.97 h -6.35 -6.35 v 20.32 20.32 h -7.62 -7.62 v -34.29 -34.29 h -6.35 -6.35 v 13.97 13.97 h -7.62 -7.62 v 6.35 6.35 h 7.62 7.62 v 7.62 7.62 h -7.62 -7.62 v 6.35 6.35 h -6.35 -6.35 v -6.35 -6.35 h 6.35 6.35 v -7.62 -7.62 h -6.35 -6.35 v -6.35 -6.35 h -7.62 -7.62 v -7.62 -7.62 h -6.35 -6.35 v 13.97 13.97 h -7.62 -7.62 v -13.97 -13.97 h 7.62 7.62 v -6.35 -6.35 h -7.62 -7.62 v -7.62 -7.62 h -13.97 -13.97 v -6.35 -6.35 h -6.35 -6.35 v 13.97 13.97 h 6.35 6.35 v 6.35 6.35 h 7.62 7.62 v 7.62 7.62 h -7.62 -7.62 v -7.62 -7.62 h -6.35 -6.35 v 7.62 7.62 h -6.35 -6.35 v -7.62 -7.62 h 6.35 6.35 v -6.35 -6.35 h -6.35 -6.35 v -7.62 -7.62 h -7.62 -7.62 v -6.35 -6.35 h 13.97 13.97 v -7.62 -7.62 h -6.35 -6.35 v -6.35 -6.35 h -7.62 -7.62 v 6.35 6.35 h -6.35 -6.35 v 7.62 7.62 h -7.62 -7.62 v 6.35 6.35 h 7.62 7.62 v 7.62 7.62 h 6.35 6.35 v 6.35 6.35 h -6.35 -6.35 v -6.35 -6.35 h -7.62 -7.62 v -7.62 -7.62 h -6.35 -6.35 v -6.35 -6.35 h 6.35 6.35 v -7.62 -7.62 h -6.35 -6.35 v -12.7 -12.7 h -21.59 -21.59 v -7.62 -7.62 h -13.97 -13.97 v 7.62 7.62 h 7.62 7.62 v 6.35 6.35 h 6.35 6.35 v 6.35 6.35 h -6.35 -6.35 v -6.35 -6.35 h -7.62 -7.62 v -6.35 -6.35 h -6.35 -6.35 v -7.62 -7.62 h 6.35 6.35 v -6.35 -6.35 h 13.97 13.97 v -7.62 -7.62 h -20.32 -20.32 v 7.62 7.62 h -7.62 -7.62 v 6.35 6.35 h -6.35 -6.35 v -6.35 -6.35 h 6.35 6.35 v -7.62 -7.62 h -6.35 -6.35 v -6.35 -6.35 h 6.35 6.35 v 6.35 6.35 h 7.62 7.62 v -13.97 -13.97005 h -27.94 -27.94 v 7.62005 7.62 h 7.62 7.62 v 13.97 13.97 h -7.62 -7.62 v -13.97 -13.97 h -6.35 -6.35 v -7.62 -7.62005 h -7.62 -7.62 v -6.35 -6.35 h 7.62 7.62 v -7.62 -7.62 h -7.62 -7.62 v -6.35 -6.35 h -6.35 -6.35 v -7.62 -7.62 h -7.62 -7.62 v -6.35 -6.35 h -6.35 -6.35 v -20.32 -20.32 h -7.62 -7.62 v 13.97 13.97 h -6.35 -6.35 v -13.97 -13.97 h -7.62 -7.62 v -7.62 -7.62 h -6.35 -6.35 v -6.35 -6.35 h 6.35 6.35 v 6.35 6.35 h 7.62 7.62 v 7.62 7.62 h 6.35 6.35 v -13.97 -13.97 h -6.35 -6.35 v -21.59 -21.59 h -7.62 -7.62 v -6.35 -6.35 h -6.35 -6.35 v 6.35 6.35 h -6.35 -6.35 v -6.35 -6.35 h 6.35 6.35 v -7.62 -7.62 h 6.35 6.35 v 7.62 7.62 h 7.62 7.62 v -34.289995 -34.29 h -7.62 -7.62 v -7.62 -7.62 h -6.35 -6.35 v -6.35 -6.35 h -6.35 -6.35 v -7.62 -7.62 h 6.35 6.35 v 7.62 7.62 h 6.35 6.35 v 6.35 6.35 h 13.97 13.97 v -6.35 -6.35 h -6.35 -6.35 V 8.5616546 -19.378345 h -7.62 -7.62 v -7.62 -7.62 h -6.35 -6.35 v -6.35 -6.35 h 6.35 6.35 v 6.35 6.35 h 7.62 7.62 v 7.62 7.62 h 6.35 6.35 V 0.94165463 21.261655 h 7.62 7.62 V -6.6783454 -34.618345 h -7.62 -7.62 v -6.35 -6.35 h -6.35 -6.35 v -7.62 -7.62 h 6.35 6.35 v -6.35 -6.35 h 7.62 7.62 v 6.35 6.35 h -7.62 -7.62 v 7.62 7.62 h 21.59 21.59 v -7.62 -7.62 h -7.62 -7.62 v -12.7 -12.7 h -6.35 -6.35 v -7.62 -7.620005 h -7.62 -7.62 v -6.35 -6.35 h 7.62 7.62 v 6.35 6.35 h 13.97 13.97 v 20.320005 20.32 h 6.35 6.35 v -6.35 -6.35 h 7.62 7.62 v -6.35 -6.35 h -7.62 -7.62 v -13.970005 -13.97 h 7.62 7.62 v -7.62 -7.62 h -7.62 -7.62 v -6.35 -6.35 h -6.35 -6.35 v -7.62 -7.62 h -7.62 -7.62 v -6.35 -6.35 h 7.62 7.62 v 6.35 6.35 h 6.35 6.35 v 7.62 7.62 h 7.62 7.62 v 6.35 6.35 h 6.35 6.35 v -13.97 -13.97 h -6.35 -6.35 v -6.35 -6.35 h 6.35 6.35 v 6.35 6.35 h 7.62 7.62 v 7.62 7.62 h 12.7 12.7 v -7.62 -7.62 h -6.35 -6.35 v -6.35 -6.35 h -6.35 -6.35 v -13.97 -13.97 h -7.62 -7.62 v -7.62 -7.62 h -6.35 -6.35 v -6.35 -6.35 h 6.35 6.35 v 6.35 6.35 h 7.62 7.62 v 7.62 7.62 h 6.35 6.35 v 13.97 13.97 h 13.97 13.97 v -7.62 -7.62 h -7.62 -7.62 v -6.35 -6.35 h 7.62 7.62 v 6.35 6.35 h 13.97 13.97 v -6.35 -6.35 h -7.62 -7.62 v -7.62 -7.62 h -6.35 -6.35 v -6.35 -6.35 h 6.35 6.35 v 6.35 6.35 h 7.62 7.62 v -6.35 -6.35 h 13.97 13.97 v -13.97 -13.97 h 6.35 6.35 v 13.97 13.97 h 7.62 7.62 v -6.35 -6.35 h 6.35 6.35 v -13.97 -13.97 h -6.35 -6.35 v -7.62 -7.62 h 6.35 6.35 v 7.62 7.62 h 7.62 7.62 v 6.35 6.35 h 6.35 6.35 v 7.62 7.62 h 13.97 13.97 v -7.62 -7.62 h -6.35 -6.35 v -6.35 -6.35 h -7.62 -7.62 v -7.62 -7.62 h -6.35 -6.35 v -6.35 -6.35 h 6.35 6.35 v 6.35 6.35 h 7.62 7.62 v -6.35 -6.35 h 6.35 6.35 v 6.35 6.35 h -6.35 -6.35 v 7.62 7.62 h 12.7 12.7 v -7.62 -7.62 h 13.97 13.97 v 7.62 7.62 h 7.62 7.62 v -13.97 -13.97 h -7.62 -7.62 v -21.59 -21.59 h 7.62 7.62 v 13.97 13.97 h 6.35 6.35 v 13.97 13.97 h 7.62 7.62 v -20.32 -20.32 h -7.62 -7.62 v -7.62 -7.62 h 7.62 7.62 v 7.62 7.62 h 6.35 6.35 v 6.35 6.35 h 13.97 13.97 v -6.35 -6.35 h -6.35 -6.35 v -7.62 -7.62 h -7.62 -7.62 v -6.35 -6.35 h 7.62 7.62 v 6.35 6.35 h 6.35 6.35 v 7.62 7.62 h 7.62 7.62 v -13.97 -13.97 h -7.62 -7.62 v -7.62 -7.62 h -6.35 -6.35 v -6.35 -6.35 h 6.35 6.35 v 6.35 6.35 h 7.62 7.62 v 7.62 7.62 h 6.35 6.35 v 13.97 13.97 h 6.35003 6.35 v -7.62 -7.62 h 7.62 7.62 v -6.35 -6.35 h -7.62 -7.62 v -13.97 -13.97 h 7.62 7.62 v 13.97 13.97 h 6.35 6.35 v -13.97 -13.97 h 7.62 7.62 v 13.97 13.97 h 6.35 6.35 v -7.62 -7.62 h 7.61997 7.62 v 7.62 7.62 h 6.35 6.35 v -20.32 -20.32 h 7.62 7.62 v 20.32 20.32 h 6.35 6.35 v -20.32 -20.32 h 7.62 7.62 v 20.32 20.32 h 6.35 6.35 v -13.97 -13.97 h 6.35 6.35 v -6.35 -6.35 h -6.35 -6.35 v -7.62 -7.62 h -6.35 -6.35 v -6.35 -6.35 h -7.62 -7.62 v -7.62 -7.62 h 7.62 7.62 v 7.62 7.62 h 6.35 6.35 v 6.35 6.35 h 6.35 6.35 v 7.62 7.62 h 21.59 21.59 v -7.62 -7.62 h -7.62 -7.62 v -13.97 -13.97 h -6.35 -6.35 v -6.35 -6.35 h 6.35 6.35 v 6.35 6.35 h 7.62 7.62 v 13.97 13.97 h 6.35 6.35 v 7.62 7.62 h 7.62 7.62 v -13.97 -13.97 h -7.62 -7.62 v -7.62 -7.62 h 7.62 7.62 v 7.62 7.62 h 6.35 6.35 v 13.97 13.97 h 7.62 7.62 v -7.62 -7.62 h 6.35 6.35 v -6.35 -6.35 h -6.35 -6.35 v -7.62 -7.62 h 6.35 6.35 v 7.62 7.62 h 13.97 13.96999 v 6.35 6.35 h 6.35 6.35 v -13.97 -13.97 h -6.35 -6.35 v -6.35 -6.35 h -6.34999 -6.35 v -7.62 -7.62 h 6.35 6.34999 v 7.62 7.62 h 6.35 6.35 v 6.35 6.35 h 7.62 7.62 v 13.97 13.97 h 13.97 13.97 v -6.35 -6.35 h -7.62 -7.62 v -7.62 -7.62 h 7.62 7.62 v 7.62 7.62 h 6.35 6.35 v 13.97 13.97 h 13.97 13.97 v -7.62 -7.62 h -6.35 -6.35 v -13.97 -13.97 h -7.62 -7.62 v -6.35 -6.35 h -6.35 -6.35 v -7.62 -7.62 h 6.35 6.35 v 7.62 7.62 h 7.62 7.62 v 6.35 6.35 h 6.35 6.35 v 7.62 7.62 h 7.62 7.62 v 6.35 6.35 h 6.35 6.35 v -13.97 -13.97 h -6.35 -6.35 v -6.35 -6.35 h -7.62 -7.62 v -7.62 -7.62 h -6.35 -6.35 v -6.35 -6.35 h 6.35 6.35 v 6.35 6.35 h 7.62 7.62 v 7.62 7.62 h 6.35 6.35 v 6.35 6.35 h 13.97 13.97 v 7.62 7.62 h 6.35 6.35 v -7.62 -7.62 h 7.62 7.62 v 13.97 13.97 h 13.97 13.97 v -6.35 -6.35 h -7.62 -7.62 v -13.97 -13.97 h 7.62 7.62 v 6.35 6.35 h 6.35 6.35 v 13.97 13.97 h 7.62 7.62 v -20.32 -20.32 h -7.62 -7.62 v -7.62 -7.62 h 7.62 7.62 v 7.62 7.62 h 6.35 6.35 v 20.32 20.32 h 7.62 7.61999 v -20.32 -20.32 h 6.35 6.35 v -7.62 -7.62 h 7.62 7.62 v 7.62 7.62 h 6.35 6.35 v -7.62 -7.62 h 6.35 6.35 v 7.62 7.62 h 7.62 7.62 v 20.32 20.32 h 6.35 6.35 v -20.32 -20.32 h 7.62 7.62 v -7.62 -7.62 h 6.35 6.35 v -6.35 -6.35 h -6.35 -6.35 v -7.62 -7.62 h 6.35 6.35 v 7.62 7.62 h 7.62 7.62 v 6.35 6.35 h -7.62 -7.62 v 7.62 7.62 h -6.35 -6.35 v 6.35 6.35 h 6.35 6.35 v 7.62 7.62 h 7.62 7.62 v -13.97 -13.97 h 6.35 6.35 v -7.62 -7.62 h 7.62 7.62 v -6.35 -6.35 h -7.62 -7.62 v -7.62 -7.62 h 7.62 7.62 v 7.62 7.62 h 6.35 6.35 v 6.35 6.35 h -6.35 -6.35 v 7.62 7.62 h -7.62 -7.62 v 6.35 6.35 h 7.62 7.62 v 7.62 7.62 h 6.35 6.35 v 6.35 6.35 h 7.62 7.62 v -13.97 -13.97 h -7.62 -7.62 v -6.35 -6.35 h 13.97 13.97 v 6.35 6.35 h 7.62 7.62 v 7.62 7.62 h 6.35 6.35 v 6.35 6.35 h 6.35 6.35 v -13.97 -13.97 h -6.35 -6.35 v -6.35 -6.35 h -6.35 -6.35 v -7.62 -7.62 h -7.62 -7.62 v -6.35 -6.35 h -6.35 -6.35 v -7.62 -7.62 h 6.35 6.35 v 7.62 7.62 h 7.62 7.62 v 6.35 6.35 h 6.35 6.35 v 7.62 7.62 h 6.35 6.35 v 6.35 6.35 h 7.62 7.62 v -6.35 -6.35 h 6.35 6.35 v -7.62 -7.62 h 13.96999 13.97 v 7.62 7.62 h -13.97 -13.96999 v 6.35 6.35 h 21.58999 21.59 v 13.97 13.97 h 6.35 6.35 v -20.32 -20.32 h -6.35 -6.35 v -7.62 -7.62 h 6.35 6.35 v 7.62 7.62 h 7.62 7.62 v 20.32 20.32 h 13.969998 13.97 v -6.35 -6.35 h -7.62 -7.62 v -13.97 -13.97 h 7.62 7.62 v 6.35 6.35 h 6.35 6.35 v 7.62 7.62 h 6.35 6.35 v -13.97 -13.97 h -6.35 -6.35 v -7.62 -7.62 h -6.35 -6.35 v -6.35 -6.35 h 6.35 6.35 v 6.35 6.35 h 6.35 6.35 v 7.62 7.62 h 7.62 7.619999 v 13.97 13.97 h 6.35 6.35 v 6.35 6.35 h 7.62 7.6199997 v -13.97 -13.97 h -7.6199997 -7.62 v -6.35 -6.35 h 7.62 7.6199997 v 6.35 6.35 h 6.34999998 6.35000002 v 13.97 13.97 h 7.6200003 7.62 v -6.35 -6.35 h 6.35 6.35 v -7.62 -7.62 h -6.35 -6.35 v -6.35 -6.35 h -7.62 -7.6200003 v -7.62 -7.62 h 7.6200003 7.62 v 7.62 7.62 h 6.35 6.35 v -7.62 -7.62 h 7.62 7.62 v 7.62 7.62 h -7.62 -7.62 v 6.35 6.35 h 7.62 7.62 v 7.62 7.62 h 6.35 6.35 v 6.35 6.35 h 13.97 13.97 v -6.35 -6.35 h -6.35 -6.35 v -7.62 -7.62 h -7.62 -7.62 v -6.35 -6.35 h 7.62 7.62 v 6.35 6.35 h 6.35 6.35 v 7.62 7.62 h 6.35 6.350003 v 6.35 6.35 h 7.62 7.62 v 7.62 7.62 h 13.97 13.96999 v -7.62 -7.62 h -7.62 -7.61999 v -13.97 -13.97 h 7.61999 7.62 v 13.97 13.97 h 6.35 6.35 v 7.62 7.62 h 13.97 13.97 v -7.62 -7.62 h -6.35 -6.35 v -6.35 -6.35 h -7.62 -7.62 v -7.62 -7.62 h 7.62 7.62 v 7.62 7.62 h 6.35 6.35 v 6.35 6.35 h 7.62 7.62 v 7.62 7.62 h 6.35 6.35 v -7.62 -7.62 h 7.62 7.62 v 7.62 7.62 h 6.35 6.35 v 12.7 12.7 h 6.35 6.35 v 7.62 7.62 h 7.62 7.62 v -13.97 -13.97 h -7.62 -7.62 v -6.35 -6.35 h 7.62 7.62 v 6.35 6.35 h 6.35 6.35 v 13.97 13.97 h 7.62 7.62 v -20.32 -20.32 h -7.62 -7.62 v -7.62 -7.62 h -6.35 -6.35 v -6.35 -6.35 h 6.35 6.35 v 6.35 6.35 h 7.62 7.62 v 7.62 7.62 h 6.35 6.35 v 20.32 20.32 h 13.97 13.97 v -7.62 -7.62 h -6.35 -6.35 v -6.35 -6.35 h 6.35 6.35 v 6.35 6.35 h 13.97 13.96999 v 7.62 7.62 h 13.97 13.97 v 6.35 6.35 h 6.35 6.35 v -6.35 -6.35 h 7.62 7.62 v 6.35 6.35 h 6.35 6.35 v 13.97 13.97 h 7.62 7.62 v 7.62 7.62 h 6.35 6.35 v -13.97 -13.97 h -6.35 -6.35 v -7.62 -7.62 h 6.35 6.35 v -6.35 -6.35 h 7.62 7.62 v 6.35 6.35 h 6.35 6.35 v 7.62 7.62 h -6.35 -6.35 v 13.97 13.97 h 13.97 13.97 v -13.97 -13.97 h 6.35 6.35 v 13.97 13.97 h 7.62 7.62 v 6.35 6.35 h 6.35 6.35 v -6.35 -6.35 h 6.35 6.35 v 6.35 6.35 h 7.62 7.62 v -6.35 -6.35 h 6.35 6.35 v -7.62 -7.62 h 7.62 7.62 v 7.62 7.62 h -7.62 -7.62 v 6.35 6.35 h -6.35 -6.35 v 7.62 7.62 h 13.97 13.97 v 13.97 13.97 h 6.35 6.35 v -7.62 -7.62 h 7.62 7.62 v 7.62 7.62 h 6.34999 6.35 v -7.62 -7.62 h 7.62 7.62 v 7.62 7.62 h -7.62 -7.62 v 6.35 6.35 h -6.35 -6.34999 v 6.35 6.35 h 13.96999 13.97 v -6.35 -6.35 h 6.35 6.35 v -6.35 -6.35 h 7.62 7.62 v 6.35 6.35 h -7.62 -7.62 v 6.35 6.35 h 7.62 7.62 v 7.62 7.62 h 6.35 6.35 v 6.35 6.35 h 7.62 7.62 v -6.35 -6.35 h 6.35 6.35 v 6.35 6.35 h -6.35 -6.35 v 13.97 13.97 h 6.35 6.35 v -6.35 -6.35 h 13.97 13.97 v 13.97 13.97 h 6.35 6.35 v 6.35 6.35 h 7.62 7.62 v -6.35 -6.35 h 6.35 6.35 v 6.35 6.35 h 7.62 7.62 v 7.62 7.62 h -7.62 -7.62 v -7.62 -7.62 h -6.35 -6.35 v 7.62 7.62 h -7.62 -7.62 v 6.35 6.35 h 7.62 7.62 v 20.320005 20.32 h 6.35 6.35 v 7.62 7.62 h 7.62 7.62 v -13.97 -13.97 h -7.62 -7.62 v -13.97 -13.970005 h 7.62 7.62 v 13.970005 13.97 h 6.35 6.35 v 13.97 13.97 h 7.62 7.62 v -7.62 -7.62 h 6.35 6.35 v 7.62 7.62 h 7.62 7.62005 v 6.35 6.35 h -7.62005 -7.62 v 7.62 7.62 h 7.62 7.62005 v 6.35 6.3499996 h -7.62005 -7.62 v -6.3499996 -6.35 h -6.35 -6.35 v 13.9699996 13.97 h 6.35 6.35 v 13.9700004 13.97 h 7.62 7.62005 v 6.35 6.35 h 6.35 6.35 v 13.97 13.97 h 6.35 6.35 v 6.35 6.35 h -6.35 -6.35 v -6.35 -6.35 h -6.35 -6.35 v -13.97 -13.97 h -7.62005 -7.62 v 20.32 20.32 h 7.62 7.62005 v 7.62 7.619995 h 12.7 12.7 v 13.97 13.97 h 7.6199 7.62 v 6.35 6.35 h -7.62 -7.6199 v -6.35 -6.35 h -6.35 -6.35 v -7.62 -7.62 h -6.35 -6.35 v -6.35 -6.35 h -7.62005 -7.62 v 20.32 20.32 h 7.62 7.62005 v 7.62 7.62 h 6.35 6.35 v 6.35 6.35 h -6.35 -6.35 v -6.35 -6.35 h -7.62005 -7.62 v 20.32 20.32 h 7.62 7.62005 v 7.62 7.62 h -7.62005 -7.62 v 6.35 6.35 h 7.62 7.62005 v 7.62 7.62 h -7.62005 -7.62 v -7.62 -7.62 h -6.35 -6.35 v -6.35 -6.35 h -7.62 -7.62 v 13.97 13.97 h 7.62 7.62 v 6.35 6.35 h -7.62 -7.62 v -6.35 -6.35 h -6.35 -6.35 v 6.35 6.35 h -7.62 -7.62 v 13.97 13.97 h -13.97 -13.97 v 6.35 6.35 h 7.62 7.62 v 7.62 7.62 h 6.35 6.35 v -7.62 -7.62 h 7.62 7.62 v 7.62 7.62 h -7.62 -7.62 v 6.35 6.35 h -6.35 -6.35 v -6.35 -6.35 h -13.97 -13.97 v 6.35 6.35 h -13.97 -13.97 v 7.62005 7.62 h 13.97 13.97 v 13.97 13.97 h -7.62 -7.62 v -7.62 -7.62 h -6.35 -6.35 v -6.35 -6.35 h -6.35 -6.35 v 6.35 6.35 h -7.62 -7.62 v 7.62 7.62 h 7.62 7.62 v 6.35 6.35 h 6.35 6.35 v 7.62 7.62 h -6.35 -6.35 v -7.62 -7.62 h -7.62 -7.62 v -6.35 -6.35 h -6.35 -6.35 v 13.97 13.97 h 6.35 6.35 v 6.35 6.35 h -6.35 -6.35 v -6.35 -6.35 h -7.62 -7.62 v -13.97 -13.97 h -6.35 -6.35 v 6.35 6.35 h -13.97 -13.96999 v 7.62 7.62 h 13.96999 13.97 v 12.7 12.7 h 6.35 6.35 v 7.62 7.62 h -6.35 -6.35 v -7.62 -7.62 h -7.62 -7.62 v -6.35 -6.35 h -6.35 -6.34999 v -6.35 -6.35 h -7.62 -7.62 v 20.32 20.32 h -6.35 -6.35 v 6.35 6.35 h 6.35 6.35 v 7.62 7.62 h -6.35 -6.35 v -7.62 -7.62 h -7.62 -7.62 v -6.35 -6.35 h 7.62 7.62 v -20.32 -20.32 h -7.62 -7.62 v 12.7 12.7 h -6.35 -6.35 v 21.59 21.59 h 6.35 6.35 v 6.35 6.35 h -6.35 -6.35 v 7.62 7.62 h -7.62 -7.62 v -7.62 -7.62 h 7.62 7.62 v -6.35 -6.35 h -7.62 -7.62 v -13.97 -13.97 h -6.35 -6.35 v 6.35 6.35 h -6.35 -6.35 v 7.62 7.62 h 6.35 6.35 v 6.35 6.35 h -6.35 -6.35 v -6.35 -6.35 h -13.97 -13.97 v 6.35 6.35 h 6.35 6.35 v 7.62 7.62 h 7.62 7.62 v 6.35 6.35 h 6.35 6.35 v 7.62 7.62 h -6.35 -6.35 v -7.62 -7.62 h -7.62 -7.62 v -6.35 -6.35 h -6.35 -6.35 v -7.62 -7.62 h -7.62 -7.62 v -6.35 -6.35 h -6.35 -6.35 v 13.97 13.97 h 6.35 6.35 v 6.35 6.35 h -6.35 -6.35 v -6.35 -6.35 h -7.62 -7.62 v -21.59 -21.59 h -6.35 -6.35 v 27.94 27.94 h 6.35 6.35 v 7.62 7.62 h 7.62 7.62 v 6.35 6.35 h -7.62 -7.62 v -6.35 -6.35 h -6.35 -6.35 v -7.62 -7.62 h -7.62 -7.62 v -13.97 -13.97 h -13.97 -13.97 v 7.62 7.62 h 7.62 7.62 v 20.32 20.32 h -7.62 -7.62 v -20.32 -20.32 h -6.35 -6.35 v 13.97 13.97 h -13.97 -13.97 v -7.62 -7.62 h -6.34999 -6.35 v 13.97 13.97 h 20.31999 20.32 v 7.62 7.62 h -20.32 -20.31999 v -7.62 -7.62 h -7.62 -7.62 v -6.35 -6.35 h -13.97 -13.97 v 6.35 6.35 h 7.62 7.62 v 7.62 7.62 h 6.35 6.35 v 6.35 6.35 h -6.35 -6.35 v -6.35 -6.35 h -7.62 -7.62 v 6.35 6.35 h -6.35 -6.35 v -6.35 -6.35 h 6.35 6.35 v -7.62 -7.62 h -13.97 -13.97 v 7.62 7.62 h -13.97 -13.97 v 6.35 6.35 h 13.97 13.97 v 6.35 6.35 h 7.62 7.62 v 7.62 7.62 h -7.62 -7.62 v -7.62 -7.62 h -13.97 -13.97 v -6.35 -6.35 h -12.7 -12.7 v -6.35 -6.35 h -7.62 -7.62 v 12.7 12.7 h 7.62 7.62 v 7.62 7.62 h 6.35 6.35 v 6.35 6.35 h -6.35 -6.35 v -6.35 -6.35 h -7.62 -7.62 v -7.62 -7.62 h -6.35 -6.35 v -12.7 -12.7 h -7.62 -7.62 v 20.32 20.32 h -6.35 -6.35 v 6.35 6.35 h -7.62 -7.62 v -6.35 -6.35 h 7.62 7.62 v -7.62 -7.62 h -7.62 -7.62 v -6.35 -6.35 h -6.35 -6.35 v 13.97 13.97 h -7.62 -7.61999 v -13.97 -13.97 h -6.35 -6.35 v 20.32 20.32 h -7.62 -7.62 v -13.97 -13.97 h -6.350003 -6.35 v -6.35 -6.35 h -6.35 -6.35 v 13.97 13.97 h 6.35 6.35 v 6.35 6.35 h -6.35 -6.35 v 7.62 7.62 h -7.62 -7.62 v -7.62 -7.62 h -13.97 -13.97 v 13.97 13.97 h -6.35 -6.35 v -13.97 -13.97 h -7.62 -7.6200003 v 7.62 7.62 H -0.22163332 -6.5716333 v -7.62 -7.62 h -7.6199997 -7.62 v -20.32 -20.32 h -6.35 -6.35 v 27.94 27.94 h 6.35 6.35 v 6.35 6.35 h -6.35 -6.35 v -6.35 -6.35 h -7.619999 -7.62 v -13.97 -13.97 h -12.7 -12.7 v 6.35 6.35 h 6.35 6.35 v 13.97 13.97 h 6.35 6.35 v 7.62 7.62 h -6.35 -6.35 v -7.62 -7.62 h -6.35 -6.35 v -13.97 -13.97 h -7.62 -7.62 v 13.97 13.97 h -6.35 -6.349998 v -20.32 -20.32 h -35.56 -35.55999 v 13.97 13.97 h 7.61999 7.62 v -7.62 -7.62 h 20.32 20.32 v 7.62 7.62 h -20.32 -20.32 v 13.97 13.97 h -7.62 -7.61999 v -13.97 -13.97 h -13.97 -13.97 v -7.62 -7.62 h -6.35 -6.35 v 13.97 13.97 h 6.35 6.35 v 7.62 7.62 h 7.62 7.62 v 6.35 6.35 h -7.62 -7.62 v -6.35 -6.35 h -6.35 -6.35 v -7.62 -7.62 h -6.35 -6.35 v -13.97 -13.97 h -13.97 -13.97 v 7.62 7.62 h 6.35 6.35 v 13.97 13.97 h -6.35 -6.35 v -13.97 -13.97 h -7.62 -7.62 v 6.35 6.35 h -6.35 -6.35 v -6.35 -6.35 h -13.97 -13.97 v -7.62 -7.62 h -7.62 -7.62 v 7.62 7.62 h -6.35 -6.35 v -13.97 -13.97 h -7.62 -7.62 v 20.32 20.32 h 7.62 7.62 v 7.62 7.62 h 6.35 6.35 v -7.62 -7.62 h 7.62 7.62 v 7.62 7.62 h 6.35 6.35 v 6.35 6.35 h -6.35 -6.35 v -6.35 -6.35 h -7.62 -7.62 v 6.35 6.35 h -6.35 -6.35 v -6.35 -6.35 h -7.62 -7.62 v -7.62 -7.62 h -6.35 -6.35 v 7.62 7.62 h -7.62 -7.62 v -7.62 -7.62 h -6.35 -6.35 v -20.32 -20.32 h -6.35 -6.35 v 13.97 13.97 h -7.62 -7.62 v -21.59 -21.59 h -6.35 -6.35 v 27.94 27.94 h 6.35 6.35 v 7.62 7.62 h 7.62 7.62 v 6.35 6.35 h -7.62 -7.62 z m -27.93999,-41.91 v -20.32 h -6.35 -6.35 v -7.62 -7.62 h -7.62 -7.62 v 7.62 7.62 h -6.35 -6.35 v -7.62 -7.62 h -7.62 -7.62 v -6.35 -6.35 h -6.35 -6.35 v 13.97 13.97 h 13.97 13.97 v 6.35 6.35 h 6.35 6.35 v -6.35 -6.35 h 7.62 7.62 v 20.32 20.32 h 6.35 6.35 z m 83.81999,0 v -20.32 h 6.35 6.35 v -7.62 -7.62 h -6.35 -6.35 v -6.35 -6.35 h -7.62 -7.62 v -6.35 -6.35 h -6.35 -6.35 v -7.62 -7.62 h -6.35 -6.35 v 7.62 7.62 h 6.35 6.35 v 6.35 6.35 h 6.35 6.35 v 6.35 6.35 h 7.62 7.62 v 7.62 7.62 h -7.62 -7.62 v 20.32 20.32 h 7.62 7.62 z m 96.52,-6.35 v -13.97 h 7.62 7.62 v -7.62 -7.62 h -7.62 -7.62 v -6.35 -6.35 h -6.35 -6.35 v 6.35 6.35 h 6.35 6.35 v 7.62 7.62 h -6.35 -6.35 v 13.97 13.97 h 6.35 6.35 z m -27.94,-7.62 v -6.35 h -6.35 -6.35 v -13.97 -13.97 h -7.62 -7.62 v 13.97 13.97 h 7.62 7.62 v 6.35 6.35 h 6.35 6.35 z m 83.82,0 v -6.35 h -6.35 -6.35 v -7.62 -7.62 h -7.62 -7.62 v 7.62 7.62 h 7.62 7.62 v 6.35 6.35 h 6.35 6.35 z m 27.94,-7.62 v -13.97 h -7.62 -7.62 v -6.35 -6.35 h -6.35 -6.35 v 6.35 6.35 h 6.35 6.35 v 13.97 13.97 h 7.62 7.62 z m 193.0399867,0 v -13.97 H -0.22163332 -6.5716333 v 13.97 13.97 h 6.34999998 6.35000002 z m 27.9400003,7.62 v -6.35 h 13.97 13.97 v 6.35 6.35 h 7.62 7.62 v -6.35 -6.35 h -7.62 -7.62 v -7.62 -7.62 h -13.97 -13.97 v -6.35 -6.35 h -6.35 -6.35 v 20.32 20.32 h 6.35 6.35 z m -746.759967,-20.32 v -13.97 h -7.62 -7.62 v -6.35 -6.35 h 7.62 7.62 v -7.62 -7.62 h -7.62 -7.62 v 7.62 7.62 h -13.97 -13.97 v 6.35 6.35 h 13.97 13.97 v 13.97 13.97 h 7.62 7.62 z m 137.15999,0 v -13.97 h -13.97 -13.97 v -6.35 -6.35 h -6.35 -6.35 v 6.35 6.35 h 6.35 6.35 v 6.35 6.35 h 7.62 7.62 v 7.62 7.62 h 6.35 6.35 z m 500.379978,6.35 v -7.62 h -7.62 -7.62 v -6.35 -6.35 h -6.35 -6.349998 v 6.35 6.35 h 6.349998 6.35 v 7.62 7.62 h 7.62 7.62 z m -721.359968,-13.97 v -6.35 h 6.35 6.35 v -6.35 -6.35 h 7.62 7.62 v -7.62 -7.62 h 6.35 6.35 v -6.35 -6.35 h -6.35 -6.35 v 6.35 6.35 h -7.62 -7.62 v 7.62 7.62 h -6.35 -6.35 v -7.62 -7.62 h -7.62 -7.62 v -6.35 -6.35 h -6.35 -6.35 v 6.35 6.35 h 6.35 6.35 v 7.62 7.62 h -13.97 -13.97 v -7.62 -7.62 h -6.35 -6.35 v -6.35 -6.35 h -6.35 -6.35 v -7.62 -7.62 h -7.62 -7.62 v 7.62 7.62 h 7.62 7.62 v 13.97 13.97 h 12.7 12.7 v 6.35 6.35 h 13.97 13.97 v 6.35 6.35 h 7.62 7.62 z m -15.24,-12.7 v -6.35 h 7.62 7.62 v 6.35 6.35 h -7.62 -7.62 z m 276.85999,12.7 v -6.35 h -12.7 -12.7 v 6.35 6.35 h 12.7 12.7 z m 99.05999,0 v -6.35 h -7.61999 -7.62 v 6.35 6.35 h 7.62 7.61999 z m 289.55999,0 v -6.35 h -6.35 -6.35 v 6.35 6.35 h 6.35 6.35 z m 27.94,0 v -6.35 h -6.35 -6.35 v 6.35 6.35 h 6.35 6.35 z m 68.579998,0 v -6.35 h -6.35 -6.35 v -6.35 -6.35 h -6.35 -6.35 v 6.35 6.35 h 6.35 6.35 v 6.35 6.35 h 6.35 6.35 z m -609.599978,-12.7 v -6.35 h -6.35 -6.35 v 6.35 6.35 h 6.35 6.35 z m 195.58,0 v -6.35 h -7.62 -7.62 v 6.35 6.35 h 7.62 7.62 z m 236.21999,0 v -6.35 h -7.62 -7.62 v 6.35 6.35 h 7.62 7.62 z m 233.6799867,0 v -6.35 H -0.22163332 -6.5716333 v 6.35 6.35 h 6.34999998 6.35000002 z m 55.8800003,0 v -6.35 h -6.35 -6.35 v 6.35 6.35 h 6.35 6.35 z m 55.880003,0 v -6.35 h -7.62 -7.62 v 6.35 6.35 h 7.62 7.62 z m 27.93999,0 v -6.35 h -7.62 -7.61999 v 6.35 6.35 h 7.61999 7.62 z m 27.94,0 v -6.35 h 6.35 6.35 v -7.62 -7.62 h 7.62 7.62 v 7.62 7.62 h 6.35 6.35 v -7.62 -7.62 h -6.35 -6.35 v -6.35 -6.35 h -7.62 -7.62 v 6.35 6.35 h -6.35 -6.35 v -6.35 -6.35 h -7.62 -7.62 v -7.62 -7.62 h -6.35 -6.35 v 7.62 7.62 h 6.35 6.35 v 6.35 6.35 h 7.62 7.62 v 7.62 7.62 h -7.62 -7.62 v 6.35 6.35 h 7.62 7.62 z m -665.47997,-13.97 v -7.62 h -7.62 -7.62 v 7.62 7.62 h 7.62 7.62 z m 55.87999,0 v -7.62 h -7.61999 -7.62 v 7.62 7.62 h 7.62 7.61999 z m 81.28,0 v -7.62 h -6.35 -6.35 v 7.62 7.62 h 6.35 6.35 z m 71.12,0 v -7.62 h -7.62 -7.62 v 7.62 7.62 h 7.62 7.62 z m 124.45999,0 v -7.62 h -7.62 -7.61999 v 7.62 7.62 h 7.61999 7.62 z m 124.459997,0 v -7.62 h -7.619999 -7.62 v 7.62 7.62 h 7.62 7.619999 z m 68.58,0 v -7.62 h -6.35 -6.35 v 7.62 7.62 h 6.35 6.35 z m 55.88,0 v -7.62 h -6.35 -6.35 v 7.62 7.62 h 6.35 6.35 z m 165.099993,0 v -7.62 h -12.7 -12.7 v 7.62 7.62 h 12.7 12.7 z m -1148.07996,-13.97 v -6.35 h -13.97 -13.97 v -7.62 -7.62 h -13.97 -13.96997 v -6.35 -6.35 h 6.35 6.35 v -7.62 -7.62 h -6.35 -6.35 v 7.62 7.62 h -7.62 -7.62 v 6.35 6.35 h 7.62 7.62 v 7.62 7.62 h 6.35 6.35 v 6.35 6.35 h 21.58997 21.59 z m 248.91999,0 v -6.35 h -7.62 -7.62 v -7.62 -7.62 h -6.35 -6.35 v 7.62 7.62 h 6.35 6.35 v 6.35 6.35 h 7.62 7.62 z m 68.58,0 v -6.35 h -6.35 -6.35 v -7.62 -7.62 h -7.62 -7.62 v 7.62 7.62 h 7.62 7.62 v 6.35 6.35 h 6.35 6.35 z m 40.64,0 v -6.35 h -6.35 -6.35 v 6.35 6.35 h 6.35 6.35 z m 208.27999,0 v -6.35 h -6.35 -6.35 v 6.35 6.35 h 6.35 6.35 z m 83.82,0 v -6.35 h -6.35 -6.35 v 6.35 6.35 h 6.35 6.35 z m 55.88,0 v -6.35 h -7.62 -7.62 v 6.35 6.35 h 7.62 7.62 z m 55.87999,0 v -6.35 h -7.62 -7.62 v 6.35 6.35 h 7.62 7.62 z m 40.639998,0 v -6.35 h -6.35 -6.349998 v 6.35 6.35 h 6.349998 6.35 z m 83.8199987,0 v -6.35 h -7.6199997 -7.62 v 6.35 6.35 h 7.62 7.6199997 z m 68.5800003,0 v -6.35 h -6.35 -6.35 v 6.35 6.35 h 6.35 6.35 z m 68.580003,0 v -6.35 h -6.35 -6.35 v 6.35 6.35 h 6.35 6.35 z m 152.39999,-7.62 v -13.97 h -6.35 -6.35 v -6.35 -6.35 h -7.62 -7.62 v 6.35 6.35 h 7.62 7.62 v 13.97 13.97 h 6.35 6.35 z m -970.27997,-6.35 v -7.62 h -6.35 -6.35 v -6.35 -6.35 h -6.34999 -6.35 v 6.35 6.35 h 6.35 6.34999 v 7.62 7.62 h 6.35 6.35 z m 652.779977,0 v -7.62 h -7.619999 -7.62 v 7.62 7.62 h 7.62 7.619999 z m 137.160003,0 v -7.62 h -6.350003 -6.35 v 7.62 7.62 h 6.35 6.350003 z m 139.69999,0 v -7.62 h -6.35 -6.35 v 7.62 7.62 h 6.35 6.35 z m 68.58,0 v -7.62 h 7.62 7.62 v -6.35 -6.35 h -7.62 -7.62 v 6.35 6.35 h -6.35 -6.35 v 7.62 7.62 h 6.35 6.35 z m -1203.95996,-13.97 v -6.35 h -7.62 -7.62 v 6.35 6.35 h 7.62 7.62 z m 68.58,0 v -6.35 h -7.62 -7.62 v 6.35 6.35 h 7.62 7.62 z m 27.94,0 v -6.35 h -7.62 -7.62 v 6.35 6.35 h 7.62 7.62 z m 55.88,0 v -6.35 h -7.62 -7.62 v 6.35 6.35 h 7.62 7.62 z m 802.639967,0 v -6.35 h -6.35 -6.35 v 6.35 6.35 h 6.35 6.35 z m 292.099993,0 v -6.35 h -7.62 -7.62 v 6.35 6.35 h 7.62 7.62 z m 27.93999,0 v -6.35 h 6.35 6.35 v -7.62 -7.62 h -6.35 -6.35 v -6.35 -6.35 h -7.62 -7.62 v 6.35 6.35 h 7.62 7.62 v 7.62 7.62 h -7.62 -7.62 v 6.35 6.35 h 7.62 7.62 z m -1442.71995,-13.97 v -7.62 h -6.35 -6.35 v -13.97 -13.97 h -7.62 -7.62 v -6.35 -6.35 h -6.35 -6.35 v 6.35 6.35 h 6.35 6.35 v 13.97 13.97 h 7.62 7.62 v 7.62 7.62 h 6.35 6.35 z m 68.58003,0 v -7.62 h -6.35 -6.35003 v -6.35 -6.35 h -6.35 -6.35 v 6.35 6.35 h 6.35 6.35 v 7.62 7.62 h 6.35003 6.35 z m 139.69997,0 v -7.62 h -6.35 -6.35 v 7.62 7.62 h 6.35 6.35 z m 83.82,0 v -7.62 h -7.62 -7.62 v 7.62 7.62 h 7.62 7.62 z m 914.39996,0 v -7.62 h -7.62 -7.61999 v 7.62 7.62 h 7.61999 7.62 z m 55.88,0 v -7.62 h -7.62 -7.62 v 7.62 7.62 h 7.62 7.62 z m 96.52,0 v -7.62 h -7.62 -7.62 v 7.62 7.62 h 7.62 7.62 z m -1262.37993,-13.97 v -6.35 h -6.35 -6.35 v 6.35 6.35 h 6.35 6.35 z m 83.81997,0 v -6.35 h -6.35 -6.35 v 6.35 6.35 h 6.35 6.35 z m 1122.67996,0 v -6.35 h -6.35 -6.35 v 6.35 6.35 h 6.35 6.35 z m 111.76,0 v -6.35 h -7.62 -7.62 v -7.62 -7.62 h -6.35 -6.35 v 7.62 7.62 h 6.35 6.35 v 6.35 6.35 h 7.62 7.62 z m -1399.53996,-13.97 v -7.62 h -7.62 -7.62 v 7.62 7.62 h 7.62 7.62 z m 137.16,0 v -7.62 h -6.35 -6.35 v 7.62 7.62 h 6.35 6.35 z m 1343.65995,0 v -7.62 h -6.35 -6.35 v -6.35 -6.35 h -7.62 -7.62 v 6.35 6.35 h 7.62 7.62 v 7.62 7.62 h 6.35 6.35 z m 71.12,0 v -7.62 h -7.62 -7.62 v -6.35 -6.35 h -6.35 -6.35 v 6.35 6.35 h 6.35 6.35 v 7.62 7.62 h 7.62 7.62 z m -1498.59992,-13.97 v -6.35 h -6.35 -6.35003 v 6.35 6.35 h 6.35003 6.35 z m 43.18,0 v -6.35 h -7.62 -7.62 v 6.35 6.35 h 7.62 7.62 z m 1259.83993,0 v -6.35 h -6.35 -6.35 v 6.35 6.35 h 6.35 6.35 z m 223.51999,0 v -6.35 h 6.35 6.35 v -7.62 -7.62 h -6.35 -6.35 v 7.62 7.62 h -7.62 -7.62 v -7.62 -7.62 h -6.35 -6.35 v 7.62 7.62 h 6.35 6.35 v 6.35 6.35 h 7.62 7.62 z m -1650.99995,-13.97 v -7.62 h -6.35 -6.35 v -12.7 -12.7 h -7.62 -7.62 v 12.7 12.7 h 7.62 7.62 v 7.62 7.62 h 6.35 6.35 z m 71.12,0 v -7.62 h -7.62 -7.62 v 7.62 7.62 h 7.62 7.62 z m 27.94,0 v -7.62 h -7.62 -7.62 v 7.62 7.62 h 7.62 7.62 z m 1399.53995,0 v -7.62 h -7.62 -7.62 v 7.62 7.62 h 7.62 7.62 z m 81.28,0 v -7.62 h -6.35 -6.35 v 7.62 7.62 h 6.35 6.35 z m -1661.15995,-20.32 v -12.7 h -7.62 -7.62 v 12.7 12.7 h 7.62 7.62 z m 124.46,6.35 v -6.35 h -7.62 -7.62 v -6.35 -6.35 h -6.35 -6.35 v 6.35 6.35 h 6.35 6.35 v 6.35 6.35 h 7.62 7.62 z m 1564.63995,0 v -6.35 h -6.35 -6.35 v 6.35 6.35 h 6.35 6.35 z m 83.82,-6.35 v -12.7 h -7.62 -7.62 v 12.7 12.7 h 7.62 7.62 z m -27.94,-6.35 v -6.35 h -6.35 -6.35 v 6.35 6.35 h 6.35 6.35 z m -1717.03995,-13.97 v -7.62 h -7.62 -7.62 v 7.62 7.62 h 7.62 7.62 z m 1633.21995,0 v -7.62 h -6.35 -6.35 v 7.62 7.62 h 6.35 6.35 z m -1704.33995,-13.97 v -6.35 h -13.97 -13.97 v 6.35 6.35 h 13.97 13.97 z m 27.94,0 v -6.35 h -6.35 -6.35 v 6.35 6.35 h 6.35 6.35 z m 68.58,0 v -6.35 h -6.35 -6.35 v 6.35 6.35 h 6.35 6.35 z m 1650.99995,0 v -6.35 h -7.62 -7.62 v 6.35 6.35 h 7.62 7.62 z m 40.64,0 v -6.35 h -6.35 -6.35 v 6.35 6.35 h 6.35 6.35 z m 55.88,0 v -6.35 h 6.35 6.35 v -7.62 -7.62 h -6.35 -6.35 v 7.62 7.62 h -7.62 -7.62 v 6.35 6.35 h 7.62 7.62 z m -1788.15995,-13.97 v -7.62 h -6.35 -6.35 v -6.35 -6.35 h -7.62 -7.62 v 6.35 6.35 h 7.62 7.62 v 7.62 7.62 h 6.35 6.35 z m 1760.21995,0 v -7.62 h -7.62 -7.62 v 7.62 7.62 h 7.62 7.62 z m 68.57999,0 v -7.62 h -6.35 -6.34999 v 7.62 7.62 h 6.34999 6.35 z m 43.18,0 v -7.62 h 6.35 6.35 v -13.97 -13.97005 h -6.35 -6.35 v 13.97005 13.97 h -7.62 -7.62 v -13.97 -13.97005 h -6.35 -6.35 v 13.97005 13.97 h 6.35 6.35 v 7.62 7.62 h 7.62 7.62 z m -1912.61994,-13.97 v -6.35 h -7.62 -7.62 v 6.35 6.35 h 7.62 7.62 z m -55.88,-13.97 v -7.62005 h -7.62 -7.62 v 7.62005 7.62 h 7.62 7.62 z m 27.94,0 v -7.62005 h -7.62 -7.62 v 7.62005 7.62 h 7.62 7.62 z m -111.76,-13.97005 v -6.35 h 20.32 20.32 v -7.62 -7.62 h -12.7 -12.7 v -6.35 -6.35 h 6.35 6.35 v -7.62 -7.62 h -6.35 -6.35 v -6.35 -6.35 h -7.62 -7.62 v -6.35 -6.35 h -6.35 -6.35 v 6.35 6.35 h 6.35 6.35 v 6.35 6.35 h -13.97 -13.97 v -12.7 -12.7 h -6.35 -6.35 v -13.97 -13.97 h -7.62 -7.62 v -13.97 -13.97 h 7.62 7.62 v 6.35 6.35 h 6.35 6.35 v -6.35 -6.35 h -6.35 -6.35 v -7.62 -7.62 h -7.62 -7.62 v 7.62 7.62 h -6.35 -6.35 v -21.59 -21.59 h -7.62 -7.62 v -6.35 -6.35 h -6.35 -6.35 v 6.35 6.35 h 6.35 6.35 v 21.59 21.59 h 7.62 7.62 v 13.97 13.97 h 6.35 6.35 v 20.32 20.32 h 7.62 7.62 v 6.35 6.35 h 6.35 6.35 v 7.62 7.62 h 13.97 13.97 v 13.97 13.97 h -6.35 -6.35 v 6.35 6.35 h 6.35 6.35 z m 0,-41.91 v -7.62 h 7.62 7.62 v 7.62 7.62 h -7.62 -7.62 z m 1925.31995,41.91 v -6.35 h -6.35 -6.35 v 6.35 6.35 h 6.35 6.35 z m 55.88,0 v -6.35 h -6.35 -6.35 v 6.35 6.35 h 6.35 6.35 z m 111.75999,0 v -6.35 h 13.97 13.97 v -7.62 -7.62 h -13.97 -13.97 v 7.62 7.62 h -6.35 -6.35 v -7.62 -7.62 h -7.62 -7.62 v 7.62 7.62 h 7.62 7.62 v 6.35 6.35 h 6.35 6.35 z m -2009.13994,-13.97 v -7.62 h -7.62 -7.62 v -6.35 -6.35 h -6.35 -6.35 v 6.35 6.35 h 6.35 6.35 v 7.62 7.62 h 7.62 7.62 z m 27.94,0 v -7.62 h -7.62 -7.62 v 7.62 7.62 h 7.62 7.62 z m 1925.31994,0 v -7.62 h -6.35 -6.35 v 7.62 7.62 h 6.35 6.35 z m -27.94,-13.97 v -6.35 h -6.35 -6.34999 v 6.35 6.35 h 6.34999 6.35 z m 83.82,-13.97 v -7.62 h -6.35 -6.35 v 7.62 7.62 h 6.35 6.35 z m 40.64,0 v -7.62 h 7.62 7.62 v -6.35 -6.35 h 6.35 6.35 v -6.35 -6.35 h 7.62 7.62 v -13.97 -13.97 h 6.35 6.35 v -7.62 -7.62 h 7.62 7.62 v 7.62 7.62 h 6.35 6.35 v -7.62 -7.62 h -6.35 -6.35 v -20.32 -20.32 h 6.35 6.35 v -7.62 -7.62 h -6.35 -6.35 v -13.97 -13.97 h -7.62 -7.62 v 13.97 13.97 h 7.62 7.62 v 7.62 7.62 h -13.97 -13.97 v 6.35 6.35 h 6.35 6.35 v 13.97 13.97 h -6.35 -6.35 v 7.62 7.62 h -7.62 -7.62 v 13.97 13.97 h -6.35 -6.35 v 6.35 6.35 h -7.62 -7.62 v -13.97 -13.97 h -6.35 -6.35 v -6.35 -6.35 h -7.62 -7.62 v 6.35 6.35 h 7.62 7.62 v 13.97 13.97 h 6.35 6.35 v 6.35 6.35 h -13.97 -13.97 v 7.62 7.62 h 13.97 13.97 z m -2077.71994,-13.97 v -6.35 h -7.62 -7.62 v 6.35 6.35 h 7.62 7.62 z m 2009.13994,0 v -6.35 h -6.35 -6.35 v 6.35 6.35 h 6.35 6.35 z m -2077.71994,-40.64 v -6.35 h -7.62 -7.62 v 6.35 6.35 h 7.62 7.62 z m 68.58,0 v -6.35 h -7.62 -7.62 v 6.35 6.35 h 7.62 7.62 z m -40.64,-13.97 v -7.62 h -7.62 -7.62 v 7.62 7.62 h 7.62 7.62 z m 2133.59994,0 v -7.62 h 6.35 6.35 v -6.35 -6.35 h -6.35 -6.35 v 6.35 6.35 h -7.62 -7.62 v 7.62 7.62 h 7.62 7.62 z m -68.58,-13.97 v -6.35 h -7.62 -7.62 v 6.35 6.35 h 7.62 7.62 z m -2065.01994,-27.94 v -6.35 h -7.62 -7.62 v 6.35 6.35 h 7.62 7.62 z m 2146.29994,0 v -6.35 h -6.35 -6.35 v 6.35 6.35 h 6.35 6.35 z m -2202.17994,-13.97 v -7.62 h -7.62 -7.62 v 7.62 7.62 h 7.62 7.62 z m 27.94,-13.97 v -6.35 h -7.62 -7.62 v -7.62 -7.62 h -6.35 -6.35 v 7.62 7.62 h 6.35 6.35 v 6.35 6.35 h 7.62 7.62 z m 2174.23994,0 v -6.35 h -6.35 -6.35 v -7.62 -7.62 h -7.62 -7.62 v 7.62 7.62 h 7.62 7.62 v 6.35 6.35 h 6.35 6.35 z m -2217.41994,-13.97 v -7.62 h -6.35 -6.35 v -6.35 -6.35 h 6.35 6.35 v -7.619995 -7.62 h -6.35 -6.35 v -20.32 -20.32 h -7.62 -7.62 v 20.32 20.32 h 7.62 7.62 v 7.62 7.619995 h -7.62 -7.62 v 6.35 6.35 h 7.62 7.62 v 7.62 7.62 h 6.35 6.35 z M 740.18834,97.461655 v -7.62 h -6.35 -6.35 v 7.62 7.619995 h 6.35 6.35 z m 71.12,0 v -7.62 h -7.62 -7.62 v 7.62 7.619995 h 7.62 7.62 z m 40.64,0 v -7.62 h -6.35 -6.35 v -12.7 -12.7 h -7.62 -7.62 v -7.62 -7.62 h -6.35 -6.35 v -6.35 -6.35 h -7.62 -7.62 v 6.35 6.35 h 7.62 7.62 v 7.62 7.62 h 6.35 6.35 v 12.7 12.7 h 7.62 7.62 v 7.62 7.619995 h 6.35 6.35 z m -2245.35994,-13.97 v -6.35 h -6.35 -6.35 v 6.35 6.35 h 6.35 6.35 z m -12.7,-26.67 v -7.62 h -7.62 -7.62 v 7.62 7.62 h 7.62 7.62 z m 40.64,-13.97 v -6.35 h -6.35 -6.35 v 6.35 6.35 h 6.35 6.35 z m 2217.41994,0 v -6.35 h -6.35 -6.35 v -7.62 -7.62 h -7.62 -7.62 v -13.9700004 -13.97 h -6.35 -6.35 v 13.97 13.9700004 h 6.35 6.35 v 7.62 7.62 h 7.62 7.62 v 6.35 6.35 h 6.35 6.35 z m -2273.29994,-13.97 v -7.62 h -6.35 -6.35 v 7.62 7.62 h 6.35 6.35 z m 43.18,-13.97 V 8.5616546 h -7.62 -7.62 v 6.3500004 6.35 h 7.62 7.62 z m 2161.53994,0 V 8.5616546 h -7.62 -7.62 v 6.3500004 6.35 h 7.62 7.62 z M -1406.1116,-5.4083454 V -19.378345 h -7.62 -7.62 v 13.9699996 13.97 h 7.62 7.62 z m 27.94,-7.6199996 v -6.35 h -7.62 -7.62 v 6.35 6.3499996 h 7.62 7.62 z m 2174.23994,0 v -6.35 h -6.35 -6.35 v 6.35 6.3499996 h 6.35 6.35 z m -27.94,-13.97 v -7.62 h -6.35 -6.35 v -6.35 -6.35 h -7.62 -7.62 v 6.35 6.35 h 7.62 7.62 v 7.62 7.62 h 6.35 6.35 z m 71.12,0 v -7.62 h 6.35 6.35 v -6.35 -6.35 h -6.35 -6.35 v 6.35 6.35 h -7.62 -7.62 v -6.35 -6.35 h -6.35 -6.35 v 13.97 13.97 h 13.97 13.97 z m -2232.65994,-13.97 v -6.35 h -6.35 -6.35 v 6.35 6.35 h 6.35 6.35 z m 55.88,0 v -6.35 h -6.35 -6.35 v 6.35 6.35 h 6.35 6.35 z m 55.88,0 v -6.35 h -7.62 -7.62 v 6.35 6.35 h 7.62 7.62 z m -83.82,-13.97 v -7.62 h -6.35 -6.35 v 7.62 7.62 h 6.35 6.35 z m 2052.31994,0 v -7.62 h -7.62 -7.62 v 7.62 7.62 h 7.62 7.62 z m -2024.37994,-13.97 v -6.35 h -6.35 -6.35 v 6.35 6.35 h 6.35 6.35 z m 2077.71994,0 v -6.35 h -6.35 -6.35 v 6.35 6.35 h 6.35 6.35 z m 27.94,-12.7 v -6.35 h -6.35 -6.35 v -7.62 -7.620005 h -7.62 -7.62 v 7.620005 7.62 h 7.62 7.62 v 6.35 6.35 h 6.35 6.35 z m -2118.35994,-13.97 v -7.620005 h -7.62 -7.62 v -6.35 -6.35 h 20.32 20.32 v -7.62 -7.62 h -20.32 -20.32 v 7.62 7.62 h -6.35 -6.35 v 6.35 6.35 h 6.35 6.35 v 7.620005 7.62 h 7.62 7.62 z m 25.4,0 v -7.620005 h -6.35 -6.35 v 7.620005 7.62 h 6.35 6.35 z m 1996.43994,0 v -7.620005 h -6.35 -6.35 v 7.620005 7.62 h 6.35 6.35 z m 55.88,0 v -7.620005 h -6.35 -6.35 v 7.620005 7.62 h 6.35 6.35 z M -1296.8916,-109.54835 v -6.35 h -6.35 -6.35 v 6.35 6.35 h 6.35 6.35 z m 43.18,0 v -6.35 h -7.62 -7.62 v 6.35 6.35 h 7.62 7.62 z m 1925.31994,-13.97 v -7.62 h -6.35 -6.35 v 7.62 7.62 h 6.35 6.35 z m 43.18,0 v -7.62 h 12.7 12.7 v 7.62 7.62 h 13.97 13.97 v -7.62 -7.62 h -13.97 -13.97 v -13.97 -13.97 h -6.35 -6.35 v 7.62 7.62 h -6.35 -6.35 v -7.62 -7.62 h -7.62 -7.62 v -13.97 -13.97 h -13.97 -13.97 v -13.97 -13.97 h -6.35 -6.35 v 13.97 13.97 h 6.35 6.35 v 7.62 7.62 h 7.62 7.62 v 6.35 6.35 h 6.35 6.35 v 7.62 7.62 h 7.62 7.62 v 6.35 6.35 h -7.62 -7.62 v 7.62 7.62 h 7.62 7.62 z m -83.81999,-13.97 v -6.35 h -7.62 -7.62 v 6.35 6.35 h 7.62 7.62 z m -1927.85995,-20.32 v -13.97 h -6.35 -6.35 v 13.97 13.97 h 6.35 6.35 z m 27.94,0 v -13.97 h -6.35 -6.35 v 13.97 13.97 h 6.35 6.35 z m 43.18,6.35 v -7.62 h -7.62 -7.62 v -6.35 -6.35 h -6.35 -6.35 v 6.35 6.35 h 6.35 6.35 v 7.62 7.62 h 7.62 7.62 z m 81.28,0 v -7.62 h -6.35 -6.35 v 7.62 7.62 h 6.35 6.35 z m -40.64,-13.97 v -6.35 h -6.35 -6.35 v 6.35 6.35 h 6.35 6.35 z m 220.98003,0 v -6.35 h -6.35 -6.35 v 6.35 6.35 h 6.35 6.35 z m 1579.87992,0 v -6.35 h -6.35 -6.35 v 6.35 6.35 h 6.35 6.35 z m 43.17999,0 v -6.35 h -7.62 -7.62 v 6.35 6.35 h 7.62 7.62 z m -1747.51994,-13.97 v -7.62 h -6.35 -6.35 v 7.62 7.62 h 6.35 6.35 z m 1676.39995,0 v -7.62 h -6.35 -6.35 v 7.62 7.62 h 6.35 6.35 z m -1841.49995,-21.59 v -13.97 h 6.35 6.35 v -6.35 -6.35 h -6.35 -6.35 v 6.35 6.35 h -13.97 -13.97 v 7.62 7.62 h 6.35 6.35 v 6.35 6.35 h 7.62 7.62 z m 27.94,7.62 v -6.35 h -7.62 -7.62 v 6.35 6.35 h 7.62 7.62 z m 68.58,0 v -6.35 h -6.35 -6.35 v 6.35 6.35 h 6.35 6.35 z m 264.16,0 v -6.35 h -7.62 -7.62 v 6.35 6.35 h 7.62 7.62 z m 1427.47995,0 v -6.35 h -7.62 -7.62 v 6.35 6.35 h 7.62 7.62 z m 81.28,-13.97 v -20.32 h 7.62 7.62 v -6.35 -6.35 h -7.62 -7.62 v 6.35 6.35 h -6.35 -6.35 v -6.35 -6.35 h -7.62 -7.62 v -7.62 -7.62 h -6.35 -6.35 v -6.35 -6.35 h -7.62 -7.62 v -7.62 -7.62 h -6.35 -6.35 v 7.62 7.62 h -6.35 -6.35 v -7.62 -7.62 h -7.62 -7.62 v -6.35 -6.35 h -6.35 -6.35 v 6.35 6.35 h -7.62 -7.62 v 7.62 7.62 h 7.62 7.62 v -7.62 -7.62 h 6.35 6.35 v 13.97 13.97 h 7.62 7.62 v 7.62 7.62 h 6.35 6.35 v 6.35 6.35 h 6.35 6.35 v -6.35 -6.35 h 13.97 13.97 v 6.35 6.35 h 7.62 7.62 v 20.32 20.32 h 6.35 6.35 z m -68.58,-46.99 v -13.97 h 6.35 6.35 v 13.97 13.97 h -6.35 -6.35 z m 96.51999,60.96 v -6.35 h -6.35 -6.34999 v 6.35 6.35 h 6.34999 6.35 z m -1828.79994,-13.97 v -7.62 h -13.97 -13.97 v -6.35 -6.35 h 7.62 7.62 v -6.35 -6.35 h -7.62 -7.62 v 6.35 6.35 h -6.35 -6.35 v 6.35 6.35 h 6.35 6.35 v 7.62 7.62 h 13.97 13.97 z m 1760.21995,0 v -7.62 h -7.62 -7.62 v 7.62 7.62 h 7.62 7.62 z m -1732.27995,-13.97 v -6.35 h -6.35 -6.35 v 6.35 6.35 h 6.35 6.35 z m 1663.69995,0 v -6.35 h -7.62 -7.62 v 6.35 6.35 h 7.62 7.62 z m 27.94,0 v -6.35 h -7.62 -7.62 v 6.35 6.35 h 7.62 7.62 z m -1663.69995,-12.7 v -6.35 h -7.62 -7.62 v 6.35 6.35 h 7.62 7.62 z m 27.94,0 v -6.35 h -7.62 -7.62 v 6.35 6.35 h 7.62 7.62 z m 27.94,0 v -6.35 h -7.62 -7.62 v 6.35 6.35 h 7.62 7.62 z m 55.88,0 v -6.35 h -7.62 -7.62 v 6.35 6.35 h 7.62 7.62 z m 1452.87995,0 v -6.35 h -6.35 -6.35 v 6.35 6.35 h 6.35 6.35 z m -180.33999,-13.97 v -7.62 h -6.35 -6.35 v 7.62 7.62 h 6.35 6.35 z m 236.21999,0 v -7.62 h -6.35 -6.35 v -6.35 -6.35 h -7.62 -7.62 v -7.62 -7.62 h 7.62 7.62 v -6.35 -6.35 h -7.62 -7.62 v 6.35 6.35 h -6.35 -6.35 v -6.35 -6.35 h -7.62 -7.62 v 6.35 6.35 h 7.62 7.62 v 7.62 7.62 h 6.35 6.35 v 6.35 6.35 h 7.62 7.62 v 7.62 7.62 h 6.35 6.35 z m -1620.51995,-13.97 v -6.35 h -7.62 -7.62 v 6.35 6.35 h 7.62 7.62 z m 40.64,0 v -6.35 h -6.35 -6.35 v 6.35 6.35 h 6.35 6.35 z m 111.76003,0 v -6.35 h -7.62 -7.62 v 6.35 6.35 h 7.62 7.62 z m 1315.71993,0 v -6.35 h -6.35 -6.35 v 6.35 6.35 h 6.35 6.35 z m 68.57999,0 v -6.35 h -6.35 -6.35 v -7.62 -7.62 h -6.35 -6.35 v 7.62 7.62 h 6.35 6.35 v 6.35 6.35 h 6.35 6.35 z m -1468.11995,-13.97 v -7.62 h 13.97 13.97 v 7.62 7.62 h 7.62 7.62 v -7.62 -7.62 h -7.62 -7.62 v -6.35 -6.35 h -13.97 -13.97 v 6.35 6.35 h -6.35 -6.35 v 7.62 7.62 h 6.35 6.35 z m 68.58003,-13.97 v -6.35 h 7.62 7.62 v -7.62 -7.62 h -7.62 -7.62 v 7.62 7.62 h -6.35 -6.35003 v -13.97 -13.97 h -6.35 -6.35 v 13.97 13.97 h 6.35 6.35 v 6.35 6.35 h 6.35003 6.35 z m 55.88,0 v -6.35 h 7.61997 7.62 v -7.62 -7.62 h -7.62 -7.61997 v 7.62 7.62 h -6.35 -6.35 v 6.35 6.35 h 6.35 6.35 z m 223.51997,0 v -6.35 h -7.62 -7.62 v 6.35 6.35 h 7.62 7.62 z m 538.47998,0 v -6.35 h -6.35 -6.35 v 6.35 6.35 h 6.35 6.35 z m 195.579987,0 v -6.35 h -7.62 -7.6200003 v 6.35 6.35 h 7.6200003 7.62 z m 401.319983,0 v -6.35 h -7.62 -7.62 v -7.62 -7.62 h 7.62 7.62 v -13.97 -13.97 h -7.62 -7.62 v 13.97 13.97 h -6.35 -6.35 v -13.97 -13.97 h -13.97 -13.97 v -6.35 -6.35 h -13.96999 -13.97 v 6.35 6.35 h -6.35 -6.35 v 7.62 7.62 h 6.35 6.35 v 6.35 6.35 h 7.62 7.62 v 7.62 7.62 h 6.35 6.34999 v -7.62 -7.62 h -6.34999 -6.35 v -6.35 -6.35 h -7.62 -7.62 v -7.62 -7.62 h 13.97 13.96999 v 7.62 7.62 h 7.62 7.62 v 6.35 6.35 h 6.35 6.35 v 7.62 7.62 h 6.35 6.35 v 6.35 6.35 h 7.62 7.62 z m -1303.01995,-13.97 v -7.62 h -6.35 -6.35 v -6.35 -6.35 h -7.62 -7.62 v 6.35 6.35 h 7.62 7.62 v 7.62 7.62 h 6.35 6.35 z m 111.76,0 v -7.62 h -7.62 -7.62 v 7.62 7.62 h 7.62 7.62 z m 927.09996,0 v -7.62 h -6.35 -6.35 v 7.62 7.62 h 6.35 6.35 z m 167.64,0 v -7.62 h -7.62 -7.62 v -6.35 -6.35 h -6.35 -6.35 v 6.35 6.35 h 6.35 6.35 v 7.62 7.62 h 7.62 7.62 z m -1275.07993,-13.97 v -6.35 h -7.62 -7.62 v -7.62 -7.62 h 7.62 7.62 v -6.35 -6.35 h -7.62 -7.62 v 6.35 6.35 h -6.35 -6.35 v 7.62 7.62 h 6.35 6.35 v 6.35 6.35 h 7.62 7.62 z m 109.21997,0 v -6.35 h -6.35 -6.35 v 6.35 6.35 h 6.35 6.35 z m 43.18,0 v -6.35 h -7.62 -7.62 v 6.35 6.35 h 7.62 7.62 z m 927.09997,0 v -6.35 h -6.35 -6.35 v 6.35 6.35 h 6.35 6.35 z m 99.05999,0 v -6.35 h -7.62 -7.62 v 6.35 6.35 h 7.62 7.62 z m 25.4,0 v -6.35 h -6.35 -6.35 v 6.35 6.35 h 6.35 6.35 z m 27.94,0 v -6.35 h -6.35 -6.35 v 6.35 6.35 h 6.35 6.35 z m -1203.95996,-20.32 v -13.97 h -7.62 -7.61997 v 13.97 13.97 h 7.61997 7.62 z m 55.88,6.35 v -7.62 h -7.62 -7.62 v 7.62 7.62 h 7.62 7.62 z m 276.85999,0 v -7.62 h -7.62 -7.62 v 7.62 7.62 h 7.62 7.62 z m 96.52,0 v -7.62 h -7.62 -7.62 v 7.62 7.62 h 7.62 7.62 z m 693.41997,0 v -7.62 h -7.62 -7.62 v 7.62 7.62 h 7.62 7.62 z m 276.85999,0 v -7.62 h -7.62 -7.62 v 7.62 7.62 h 7.62 7.62 z m -1371.59995,-13.97 v -6.35 h -7.62 -7.62 v 6.35 6.35 h 7.62 7.62 z m 53.34,0 v -6.35 h -6.35 -6.35 v 6.35 6.35 h 6.35 6.35 z m 27.94,0 v -6.35 h -6.35 -6.35 v 6.35 6.35 h 6.35 6.35 z m 27.94,0 v -6.35 h -6.35 -6.35 v 6.35 6.35 h 6.35 6.35 z m 43.18,0 v -6.35 h -7.62 -7.62 v -7.62 -7.62 h -6.35 -6.35 v -6.35 -6.35 h 6.35 6.35 v -6.35 -6.35 h -6.35 -6.35 v 6.35 6.35 h -7.62 -7.62 v -6.35 -6.35 h -6.35 -6.35 v 6.35 6.35 h -21.59 -21.59 v 6.35 6.35 h 21.59 21.59 v -6.35 -6.35 h 6.35 6.35 v 6.35 6.35 h 7.62 7.62 v 7.62 7.62 h 6.35 6.35 v 6.35 6.35 h 7.62 7.62 z m 27.94,0 v -6.35 h -7.62 -7.62 v 6.35 6.35 h 7.62 7.62 z m 53.33999,0 v -6.35 h -6.35 -6.35 v 6.35 6.35 h 6.35 6.35 z m 304.79999,0 v -6.35 h -6.35 -6.35 v 6.35 6.35 h 6.35 6.35 z m 83.82,0 v -6.35 h -6.35 -6.35 v 6.35 6.35 h 6.35 6.35 z m 276.8599867,0 v -6.35 H -0.22163332 -6.5716333 v 6.35 6.35 h 6.34999998 6.35000002 z m 96.5200033,0 v -6.35 h -6.350003 -6.35 v 6.35 6.35 h 6.35 6.350003 z m 55.87999,0 v -6.35 h -6.35 -6.35 v 6.35 6.35 h 6.35 6.35 z m 71.12,0 v -6.35 h -7.62 -7.62 v 6.35 6.35 h 7.62 7.62 z m 25.4,0 v -6.35 h -6.35 -6.35 v 6.35 6.35 h 6.35 6.35 z m 27.94,0 v -6.35 h -6.35 -6.35 v 6.35 6.35 h 6.35 6.35 z m 27.94,0 v -6.35 h -6.35 -6.35 v 6.35 6.35 h 6.35 6.35 z m -942.33997,-13.97 v -7.62 h -6.35 -6.35 v 7.62 7.62 h 6.35 6.35 z m 83.82,0 v -7.62 h -6.35 -6.35 v 7.62 7.62 h 6.35 6.35 z m 27.94,0 v -7.62 h -7.62 -7.62 v 7.62 7.62 h 7.62 7.62 z m 96.51999,0 v -7.62 h -6.35 -6.35 v -6.35 -6.35 h -7.61999 -7.62 v -6.35 -6.35 h -6.35 -6.35 v 6.35 6.35 h 6.35 6.35 v 6.35 6.35 h 7.62 7.61999 v 7.62 7.62 h 6.35 6.35 z m 96.52,0 v -7.62 h -6.35 -6.35 v 7.62 7.62 h 6.35 6.35 z m 83.82,0 v -7.62 h -6.35 -6.35 v 7.62 7.62 h 6.35 6.35 z m 68.58,0 v -7.62 h -6.35 -6.35 v 7.62 7.62 h 6.35 6.35 z m 83.819988,0 v -7.62 h -6.35 -6.349998 v -6.35 -6.35 h -7.62 -7.62 v 6.35 6.35 h 7.62 7.62 v 7.62 7.62 h 6.349998 6.35 z m 55.879999,0 v -7.62 h -7.619999 -7.62 v 7.62 7.62 h 7.62 7.619999 z m 83.82,0 v -7.62 h -7.62 -7.62 v 7.62 7.62 h 7.62 7.62 z m 27.94,0 v -7.62 h -7.62 -7.62 v 7.62 7.62 h 7.62 7.62 z m 53.340003,-6.35 v -13.97 h -6.35 -6.35 v 13.97 13.97 h 6.35 6.35 z m 71.11999,-6.35 v -20.32 h -7.62 -7.62 v 20.32 20.32 h 7.62 7.62 z m -914.39996,-1.27 v -6.35 h -7.62 -7.62 v -6.35 -6.35 h 13.97 13.96999 v -7.62 -7.62 h -13.96999 -13.97 v 7.62 7.62 h -6.35 -6.35 v 6.35 6.35 h 6.35 6.35 v 6.35 6.35 h 7.62 7.62 z m 25.39999,0 v -6.35 h -6.35 -6.35 v 6.35 6.35 h 6.35 6.35 z m 27.94,-6.35 v -12.7 h -6.35 -6.35 v -7.62 -7.62 h -7.62 -7.62 v 7.62 7.62 h 7.62 7.62 v 12.7 12.7 h 6.35 6.35 z m 83.82,6.35 v -6.35 h -6.35 -6.35 v -6.35 -6.35 h -7.62 -7.62 v 6.35 6.35 h 7.62 7.62 v 6.35 6.35 h 6.35 6.35 z m 193.03999,0 v -6.35 h -6.35 -6.35 v 6.35 6.35 h 6.35 6.35 z m 320.039988,0 v -6.35 h -6.35 -6.35 v 6.35 6.35 h 6.35 6.35 z m 83.819999,0 v -6.35 h -7.62 -7.6200003 v 6.35 6.35 h 7.6200003 7.62 z m 81.280003,0 v -6.35 h -6.350003 -6.35 v -6.35 -6.35 h 6.35 6.350003 v -7.62 -7.62 h -6.350003 -6.35 v 7.62 7.62 h -6.35 -6.35 v 6.35 6.35 h 6.35 6.35 v 6.35 6.35 h 6.35 6.350003 z m 71.11999,0 v -6.35 h -7.62 -7.62 v -6.35 -6.35 h -6.35 -6.35 v 6.35 6.35 h 6.35 6.35 v 6.35 6.35 h 7.62 7.62 z m 55.88,-6.35 v -12.7 h -7.62 -7.62 v 12.7 12.7 h 7.62 7.62 z m -861.05997,-6.35 v -6.35 h -6.35 -6.35 v 6.35 6.35 h 6.35 6.35 z m 96.52,0 v -6.35 h 7.62 7.62 v -7.62 -7.62 h -7.62 -7.62 v 7.62 7.62 h -6.35 -6.35 v 6.35 6.35 h 6.35 6.35 z m 55.88,0 v -6.35 h -6.35 -6.35 v 6.35 6.35 h 6.35 6.35 z m 139.69999,0 v -6.35 h -7.62 -7.62 v 6.35 6.35 h 7.62 7.62 z m 68.58,0 v -6.35 h -6.35 -6.35 v 6.35 6.35 h 6.35 6.35 z m 55.88,0 v -6.35 h -6.35 -6.35 v 6.35 6.35 h 6.35 6.35 z m 27.94,0 v -6.35 h -7.62 -7.62 v 6.35 6.35 h 7.62 7.62 z m 55.87999,0 v -6.35 h -7.62 -7.62 v 6.35 6.35 h 7.62 7.62 z m 96.519997,0 v -6.35 h -7.619999 -7.62 v 6.35 6.35 h 7.62 7.619999 z m 27.9399997,0 v -6.35 h 6.34999998 6.35000002 v -7.62 -7.62 H -0.22163332 -6.5716333 v 7.62 7.62 h -7.6199997 -7.62 v 6.35 6.35 h 7.62 7.6199997 z m 68.5800003,-7.62 v -13.97 h -6.35 -6.35 v -6.35 -6.35 h -7.62 -7.62 v 6.35 6.35 h -6.35 -6.35 v 7.62 7.62 h 6.35 6.35 v -7.62 -7.62 h 7.62 7.62 v 13.97 13.97 h 6.35 6.35 z m -622.299977,-6.35 v -7.62 h 6.35 6.35 v -6.35 -6.35 h -6.35 -6.35 v 6.35 6.35 h -7.62 -7.62 v 7.62 7.62 h 7.62 7.62 z m 137.15999,0 v -7.62 h -6.35 -6.35 v 7.62 7.62 h 6.35 6.35 z m 27.94,0 v -7.62 h 6.35 6.35 v -20.32 -20.32 h -6.35 -6.35 v 20.32 20.32 h -6.35 -6.35 v 7.62 7.62 h 6.35 6.35 z m 83.82,0 v -7.62 h 6.35 6.35 v -6.35 -6.35 h -6.35 -6.35 v 6.35 6.35 h -7.62 -7.62 v -6.35 -6.35 h -6.35 -6.35 v 6.35 6.35 h 6.35 6.35 v 7.62 7.62 h 7.62 7.62 z m 68.58,0 v -7.62 h -6.35 -6.35 v 7.62 7.62 h 6.35 6.35 z m 83.81999,0 v -7.62 h 6.35 6.35 v -6.35 -6.35 h -6.35 -6.35 v 6.35 6.35 h -7.62 -7.61999 v -13.97 -13.97 h -6.35 -6.35 v 13.97 13.97 h 6.35 6.35 v 7.62 7.62 h 7.61999 7.62 z m 55.88,0 v -7.62 h -7.62 -7.62 v 7.62 7.62 h 7.62 7.62 z m 40.639998,0 v -7.62 h -6.35 -6.35 v 7.62 7.62 h 6.35 6.35 z m 27.939999,-13.97 v -6.35 h -7.619999 -7.62 v 6.35 6.35 h 7.62 7.619999 z m -373.379987,-20.32 v -13.97 h -7.62 -7.62 v 13.97 13.97 h 7.62 7.62 z m 124.46,1087.12005 v -6.35 h 6.35 6.35 v 6.35 6.35 h -6.35 -6.35 z m 152.39999,0 v -6.35 h -7.62 -7.62 v -7.62 -7.62 h 7.62 7.62 v 7.62 7.62 h 6.35 6.35 v 6.35 6.35 h -6.35 -6.35 z m 27.94,0 v -6.35 h 6.349998 6.35 v 6.35 6.35 h -6.35 -6.349998 z m 81.279997,0 v -6.35 h 7.62 7.6199997 v 6.35 6.35 h -7.6199997 -7.62 z m 43.18,0 v -6.35 h 6.35 6.35 v 6.35 6.35 h -6.35 -6.35 z m 55.88,0 v -6.35 h 6.35 6.35 v 6.35 6.35 h -6.35 -6.35 z m 124.459993,0 v -6.35 h 6.35 6.35 v 6.35 6.35 h -6.35 -6.35 z m -1054.09996,-13.97 v -7.62 h 6.35 6.35 v 7.62 7.62 h -6.35 -6.35 z m 55.88,0 v -7.62 h 6.35 6.35 v 7.62 7.62 h -6.35 -6.35 z m 83.82,0 v -7.62 h -7.62 -7.62 v -6.35 -6.35 h 7.62 7.62 v 6.35 6.35 h 6.35 6.34999 v 7.62 7.62 h -6.34999 -6.35 z m 815.33997,0 v -7.62 h -6.350003 -6.35 v -6.35 -6.35 h 6.35 6.350003 v 6.35 6.35 h 7.62 7.62 v 7.62 7.62 h -7.62 -7.62 z m 43.17999,0 v -7.62 h 6.35 6.35 v 7.62 7.62 h -6.35 -6.35 z m -1066.79996,-13.97 v -6.35 h -7.62 -7.61997 v -7.62 -7.62 h 7.61997 7.62 v 7.62 7.62 h 6.35 6.35 v 6.35 6.35 h -6.35 -6.35 z m 165.1,-7.62 v -13.97 h -6.35 -6.35 v -6.35 -6.35 h 6.35 6.35 v 6.35 6.35 h 7.62 7.62 v 13.97 13.97 h -7.62 -7.62 z m 886.45997,-6.35 v -7.62 h 7.61999 7.62 v 7.62 7.62 h -7.62 -7.61999 z m 71.11999,0 v -7.62 h 6.35 6.35 v 7.62 7.62 h -6.35 -6.35 z m 68.58,0 v -7.62 h 6.35 6.35 v 7.62 7.62 h -6.35 -6.35 z m 40.64,0 v -7.62 h 7.62 7.62 v 7.62 7.62 h -7.62 -7.62 z m -1150.61996,-13.97 v -6.35 h 7.62 7.62 v 6.35 6.35 h -7.62 -7.62 z m 1374.13995,0 v -6.35 h 6.35 6.35 v 6.35 6.35 h -6.35 -6.35 z m -1483.35992,-20.32 v -13.97 h 6.35 6.35 v 13.97 13.97 h -6.35 -6.35 z m 68.57997,6.35 v -7.62 h -13.97 -13.97 v -6.35 -6.35 h 13.97 13.97 v 6.35 6.35 h 13.97 13.97 v 7.62 7.62 h -13.97 -13.97 z m 1206.49996,0 v -7.62 h 6.35 6.35 v 7.62 7.62 h -6.35 -6.35 z m 40.63999,0 v -7.62 h 7.62 7.62 v 7.62 7.62 h -7.62 -7.62 z m 55.88,0 v -7.62 h 6.35 6.35 v 7.62 7.62 h -6.35 -6.35 z m -1483.35995,-13.97 v -6.35 h 7.62 7.62 v 6.35 6.35 h -7.62 -7.62 z m 55.88,0 v -6.35 h -6.35 -6.35 v -6.35 -6.35 h 6.35 6.35 v -7.62 -7.62 h 6.35003 6.35 v 7.62 7.62 h -6.35 -6.35003 v 6.35 6.35 h 6.35003 6.35 v 6.35 6.35 h -6.35 -6.35003 z m 27.94003,0 v -6.35 h 6.35 6.35 v 6.35 6.35 h -6.35 -6.35 z m -236.22003,-12.7 v -6.35 h 7.62 7.62 v 6.35 6.35 h -7.62 -7.62 z m 111.76,0 v -6.35 h 6.35 6.35 v 6.35 6.35 h -6.35 -6.35 z m 1508.75995,0 v -6.35 h 7.62 7.62 v 6.35 6.35 h -7.62 -7.62 z m 83.82,0 v -6.35 h 7.62 7.62 v 6.35 6.35 h -7.62 -7.62 z m -55.88,-13.97 v -7.62 h 7.62 7.62 v 7.62 7.62 h -7.62 -7.62 z m -1551.93995,-13.97 v -6.35 h 7.62 7.62 v 6.35 6.35 h -7.62 -7.62 z m -137.16,-13.97 v -7.62 h 6.35 6.35 v 7.62 7.62 h -6.35 -6.35 z m 96.52,0 v -7.62 h 6.35 6.35 v 7.62 7.62 h -6.35 -6.35 z m 1772.91995,-27.94 v -7.62 h 7.62 7.62 v 7.62 7.62 h -7.62 -7.62 z m 27.93999,0 v -7.62 h 7.62 7.62 v 7.62 7.62 h -7.62 -7.62 z m -1897.37994,-13.97 v -6.35 h 6.35 6.35 v 6.35 6.35 h -6.35 -6.35 z m -71.12,-27.94 v -6.35 h 7.62 7.62 v 6.35 6.35 h -7.62 -7.62 z m 43.18,0 v -6.35 h 6.35 6.35 v 6.35 6.35 h -6.35 -6.35 z m 27.94,0 v -6.35 h 6.35 6.35 v 6.35 6.35 h -6.35 -6.35 z m 1884.67995,0 v -6.35 h 6.34999 6.35 v 6.35 6.35 h -6.35 -6.34999 z m 68.57999,0 v -6.35 h 7.62 7.62 v 6.35 6.35 h -7.62 -7.62 z m 27.94,0 v -6.35 h 6.35 6.35 v 6.35 6.35 h -6.35 -6.35 z m -1981.19994,-27.94 v -6.35 h 6.35 6.35 v 6.35 6.35 h -6.35 -6.35 z m 2021.83994,0 v -6.35 h 7.62 7.62 v 6.35 6.35 h -7.62 -7.62 z m -2161.53994,-12.7 v -6.35 h 7.62 7.62 v 6.35 6.35 h -7.62 -7.62 z m 55.88,0 v -6.35 h 6.35 6.35 v 6.35 6.35 h -6.35 -6.35 z m 2077.71994,-13.97 v -7.62 h 7.62 7.62 v 7.62 7.62 h -7.62 -7.62 z m -2146.29994,-13.97 v -6.35 h 6.35 6.35 v 6.35 6.35 h -6.35 -6.35 z m 2189.47994,0 v -6.35 h 6.35 6.35 v 6.35 6.35 h -6.35 -6.35 z m 0,-27.94 v -6.35 h 6.35 6.35 v 6.35 6.35 h -6.35 -6.35 z m -2217.41994,-13.97 v -7.62005 h 6.35 6.35 v 7.62005 7.62 h -6.35 -6.35 z m 12.7,-27.94005 v -7.62 h -6.35 -6.35 v -6.35 -6.35 h 6.35 6.35 v 6.35 6.35 h 7.62 7.62 v 7.62 7.62 h -7.62 -7.62 z m 2273.29994,0 v -7.62 h 7.62 7.62005 v 7.62 7.62 h -7.62005 -7.62 z m -2354.57994,-13.97 v -6.35 h 6.35 6.35 v 6.35 6.35 h -6.35 -6.35 z m 40.64,0 v -6.35 h 6.35 6.35 v 6.35 6.35 h -6.35 -6.35 z m 2273.29994,-13.97 v -7.62 h 6.35 6.35 v 7.62 7.62 h -6.35 -6.35 z m 27.94,0 v -7.62 h 6.35 6.35 v 7.62 7.62 h -6.35 -6.35 z m -2301.23994,-13.97 v -6.35 h 6.35 6.35 v 6.35 6.35 h -6.35 -6.35 z m 2341.87999,-12.7 v -6.35 h 6.35 6.35 v 6.35 6.35 h -6.35 -6.35 z m 0,-27.94 v -6.35 h 6.35 6.35 v 6.35 6.35 h -6.35 -6.35 z m -2397.75999,-13.97 v -7.62 h 7.62 7.62 v 7.62 7.62 h -7.62 -7.62 z m 2425.69989,-27.94 v -7.62 h -7.62 -7.6199 v -6.35 -6.35 h 7.6199 7.62 v 6.35 6.35 h 6.35 6.35 v 7.62 7.62 h -6.35 -6.35 z m -2425.69989,-13.97 v -6.35 h 7.62 7.62 v 6.35 6.35 h -7.62 -7.62 z m 27.94,0 v -6.35 h 6.35 6.35 v 6.35 6.35 h -6.35 -6.35 z m -27.94,-55.88 v -6.35 h -6.35 -6.35 v -7.619995 -7.62 h 6.35 6.35 v 7.62 7.619995 h 7.62 7.62 v 6.35 6.35 h -7.62 -7.62 z m -55.88,-13.969995 v -7.62 h 7.62 7.62 v 7.62 7.619995 h -7.62 -7.62 z m 83.82,-6.35 v -13.97 h -6.35 -6.35 v -6.35 -6.35 h -7.62 -7.62 v -7.62 -7.62 h 7.62 7.62 v 7.62 7.62 h 6.35 6.35 v 6.35 6.35 h 6.35 6.35 v 13.97 13.969995 h -6.35 -6.35 z m 2397.75989,6.35 v -7.62 h 6.35 6.35 v 7.62 7.619995 h -6.35 -6.35 z m -15.2399,-40.64 v -7.62 h 7.6199 7.62 v 7.62 7.62 h -7.62 -7.6199 z m 27.9399,-13.97 v -6.35 h 7.62 7.62 v 6.35 6.35 h -7.62 -7.62 z m -40.6399,-13.97 v -7.62 h -6.35 -6.35 v -6.35 -6.3500004 h 6.35 6.35 v 6.3500004 6.35 h 6.35 6.35 v 7.62 7.62 h -6.35 -6.35 z m -2410.45999,-13.97 V 8.5616546 h 6.35 6.35 v 6.3500004 6.35 h -6.35 -6.35 z m 40.64,-13.97000037 V -6.6783454 h 6.35 6.35 V 0.94165463 8.5616546 h -6.35 -6.35 z m 2382.51999,0 V -6.6783454 h 7.6199 7.62 V 0.94165463 8.5616546 h -7.62 -7.6199 z m -12.7,-27.93999963 v -7.62 h 6.35 6.35 v 7.62 7.62 h -6.35 -6.35 z m -2397.75999,-13.97 v -6.35 h 7.62 7.62 v 6.35 6.35 h -7.62 -7.62 z m 2385.05999,-27.94 v -6.35 h 6.35 6.35 v 6.35 6.35 h -6.35 -6.35 z m -2344.41999,-12.7 v -6.35 h 7.62 7.62 v 6.35 6.35 h -7.62 -7.62 z m 2316.47994,0 v -6.35 h -7.62 -7.62 v -7.62 -7.620005 h 7.62 7.62 v 7.620005 7.62 h 6.35 6.35 v 6.35 6.35 h -6.35 -6.35 z M -1489.9316,-109.54835 v -6.35 h 6.35 6.35 v 6.35 6.35 h -6.35 -6.35 z m 68.58,-13.97 v -7.62 h 7.62 7.62 v 7.62 7.62 h -7.62 -7.62 z m 2245.35994,0 v -7.62 h 7.62 7.62 v 7.62 7.62 h -7.62 -7.62 z m -55.88,-41.91 v -6.35 h 7.62 7.62 v 6.35 6.35 h -7.62 -7.62 z m 27.94,0 v -6.35 h 7.62 7.62 v 6.35 6.35 h -7.62 -7.62 z m -55.88,-27.94 v -6.35 h 7.62 7.62 v 6.35 6.35 h -7.62 -7.62 z m -12.7,-27.94 v -6.35 h 6.35 6.35 v 6.35 6.35 h -6.35 -6.35 z m -2065.01994,-12.7 v -6.35 h 6.35 6.35 v 6.35 6.35 h -6.35 -6.35 z m 2037.07994,0 v -6.35 h 7.62 7.62 v 6.35 6.35 h -7.62 -7.62 z m -1981.19994,-13.97 v -7.62 h -7.62 -7.62 v -6.35 -6.35 h 7.62 7.62 v 6.35 6.35 h 6.35 6.35 v 7.62 7.62 h -6.35 -6.35 z m 1953.25994,-13.97 v -6.35 h 7.62 7.62 v 6.35 6.35 h -7.62 -7.62 z m -1925.31994,-13.97 v -7.62 h 6.35 6.35 v 7.62 7.62 h -6.35 -6.35 z m 1869.43995,0 v -7.62 h 7.62 7.62 v 7.62 7.62 h -7.62 -7.62 z m 27.93999,0 v -7.62 h 7.62 7.62 v 7.62 7.62 h -7.62 -7.62 z m -1869.43994,-27.94 v -7.62 h 6.35 6.35 v 7.62 7.62 h -6.35 -6.35 z m 81.28,0 v -7.62 h -6.35 -6.35 v -6.35 -6.35 h -6.35 -6.35 v -7.62 -7.62 h 6.35 6.35 v 7.62 7.62 h 6.35 6.35 v 6.35 6.35 h 7.62 7.62 v 7.62 7.62 h -7.62 -7.62 z m 1704.33995,-13.97 v -6.35 h -6.35 -6.35 v -7.62 -7.62 h 6.35 6.35 v 7.62 7.62 h 7.62 7.62 v 6.35 6.35 h -7.62 -7.62 z m -53.34,-27.94 v -6.35 h 6.35 6.35 v 6.35 6.35 h -6.35 -6.35 z m -1635.75995,-13.97 v -7.62 h 6.35 6.35 v 7.62 7.62 h -6.35 -6.35 z m 1564.63995,0 v -7.62 h -6.35 -6.35 v -6.35 -6.35 h 6.35 6.35 v 6.35 6.35 h 7.62 7.62 v 7.62 7.62 h -7.62 -7.62 z m -1508.75995,-13.97 v -6.35 h 6.35 6.35 v 6.35 6.35 h -6.35 -6.35 z m 1468.11995,0 v -6.35 h -6.35 -6.35 v -6.35 -6.35 h 6.35 6.35 v 6.35 6.35 h 6.35 6.35 v 6.35 6.35 h -6.35 -6.35 z m -1330.95992,-12.7 v -6.35 h 7.61997 7.62 v 6.35 6.35 h -7.62 -7.61997 z m 1290.31993,0 v -6.35 h 6.35 6.34999 v 6.35 6.35 h -6.34999 -6.35 z m -1358.89996,-13.97 v -7.62 h 6.35003 6.35 v 7.62 7.62 h -6.35 -6.35003 z m 1330.95996,0 v -7.62 h 6.35 6.35 v 7.62 7.62 h -6.35 -6.35 z m -1290.31993,-13.97 v -6.35 h 7.62 7.62 v 6.35 6.35 h -7.62 -7.62 z m 43.17997,0 v -6.35 h 6.35 6.35 v 6.35 6.35 h -6.35 -6.35 z m 1163.31996,0 v -6.35 h -6.35 -6.35 v -7.62 -7.62 h 6.35 6.35 v 7.62 7.62 h 6.35 6.35 v 6.35 6.35 h -6.35 -6.35 z m -139.69999,-27.94 v -6.35 h -6.350003 -6.35 v -7.62 -7.62 h 6.35 6.350003 v 7.62 7.62 h 7.62 7.62 v 6.35 6.35 h -7.62 -7.62 z m 99.05999,0 v -6.35 h 6.35 6.35 v 6.35 6.35 h -6.35 -6.35 z m -957.57996,-13.97 v -7.62 h 7.62 7.62 v 7.62 7.62 h -7.62 -7.62 z m 195.57999,0 v -7.62 h -7.62 -7.62 v -6.35 -6.35 h 7.62 7.62 v 6.35 6.35 h 6.35 6.35 v 7.62 7.62 h -6.35 -6.35 z m 25.4,0 v -7.62 h 7.62 7.62 v 7.62 7.62 h -7.62 -7.62 z m 665.47998,0 v -7.62 h 7.61999 7.62 v 7.62 7.62 h -7.62 -7.61999 z m -802.63998,-13.97 v -6.35 h 6.35 6.35 v 6.35 6.35 h -6.35 -6.35 z m 165.1,0 v -6.35 h -6.35 -6.35 v -7.62 -7.62 h 6.35 6.35 v 7.62 7.62 h 7.62 7.62 v 6.35 6.35 h -7.62 -7.62 z m 55.88,0 v -6.35 h -6.35 -6.35 v -7.62 -7.62 h 6.35 6.35 v 7.62 7.62 h 7.62 7.61999 v 6.35 6.35 h -7.61999 -7.62 z m 83.81999,0 v -6.35 h -7.62 -7.62 v -7.62 -7.62 h 7.62 7.62 v 7.62 7.62 h 6.35 6.35 v 6.35 6.35 h -6.35 -6.35 z m 165.1,0 v -6.35 h -6.35 -6.35 v -7.62 -7.62 h 6.35 6.35 v 7.62 7.62 h 7.62 7.62 v 6.35 6.35 h -7.62 -7.62 z m 99.05999,0 v -6.35 h -7.62 -7.62 v -7.62 -7.62 h 7.62 7.62 v 7.62 7.62 h 6.349998 6.35 v 6.35 6.35 h -6.35 -6.349998 z m 81.279997,0 v -6.35 h 7.62 7.6199997 v 6.35 6.35 h -7.6199997 -7.62 z m -401.319987,-13.97 v -7.62 h 7.62 7.62 v 7.62 7.62 h -7.62 -7.62 z m 248.92,0 v -7.62 h 7.61999 7.62 v 7.62 7.62 h -7.62 -7.61999 z"
       id="path431" /></g></svg>
